<svg width="155" height="155" viewBox="0 0 155 155" fill="none" xmlns="http://www.w3.org/2000/svg">
<path d="M27.856 94.1354C26.8029 95.2633 28.0814 96.1658 28.6835 95.4139C30.338 93.3078 32.9883 93.138 34.2489 94.3608C34.7832 94.8789 35.3769 94.5863 35.2263 93.9092C34.7755 92.4092 31.0899 90.6753 27.856 94.1354Z" fill="#3D9CFB"/>
<path d="M27.7808 88.7957C26.5016 86.6897 24.3207 83.2303 21.9908 83.7561C14.771 85.3356 8.00201 95.865 9.80696 95.6396C10.4832 95.5624 13.0409 91.6537 16.2748 88.7201C18.2303 86.9908 21.0134 85.5618 22.2919 85.6367C23.5703 85.7872 26.0523 88.6475 27.1802 90.2247C28.2317 91.8043 29.0585 90.9018 27.7808 88.7957Z" fill="#3D9CFB"/>
<path d="M22.3652 75.1071C24.8472 76.536 25.7497 76.3106 28.078 74.8067C32.0639 72.2491 37.8771 67.0002 38.758 65.7812C39.9947 64.0766 39.0637 53.2963 37.3321 51.4157C35.6777 49.6856 24.2458 51.1146 22.6639 52.4679C20.9339 53.8977 14.2406 66.3069 14.9925 68.5635C15.5947 70.2187 19.5072 73.4526 22.3652 75.1071ZM34.9257 53.2963C36.9561 54.0482 35.9031 57.4327 33.9476 56.7564C31.7667 56.0794 32.6692 52.3938 34.9257 53.2963Z" fill="#3D9CFB"/>
<path d="M45.6049 89.4753C43.5986 89.644 41.737 90.5881 40.4155 92.1071C39.8141 92.8591 40.3383 93.6866 41.0925 93.0853C44.7773 90.1516 47.4855 90.4527 50.4184 92.9309C51.0198 93.4574 51.6358 92.6993 51.0198 91.803C50.4097 90.9641 49.5849 90.3052 48.632 89.8956C47.6791 89.486 46.6334 89.3408 45.6049 89.4753Z" fill="#3D9CFB"/>
<path d="M28.3824 102.634C25.2233 101.054 20.5604 98.7229 18.0035 99.7775C15.672 100.755 13.3406 112.112 14.6947 111.961C15.0699 111.961 15.2204 111.811 15.2961 111.435C15.5215 109.404 17.5519 101.582 18.8303 101.132C20.6353 100.529 27.0136 103.273 28.9837 104.215C29.7998 104.607 30.1858 103.462 28.3824 102.634Z" fill="#3D9CFB"/>
<path d="M46.5827 74.1298C45.0781 73.1516 38.6102 71.8732 25.6744 79.3941C25.1459 79.0958 24.5923 78.8442 24.02 78.6421C19.432 77.2131 12.2083 83.7559 8.75204 87.8174C2.23476 95.2472 1.67737 99.1837 10.4813 103.762C8.82693 109.552 7.47051 114.292 9.7294 117.149C10.933 118.654 14.9196 119.857 17.4008 119.556C18.9055 119.406 18.5295 118.052 17.2511 117.977C14.2402 117.822 11.1584 116.321 11.0086 116.021C8.52662 114.066 14.468 96.0154 17.4008 95.3383C19.056 94.8118 24.772 97.2938 32.7437 101.128C33.8716 101.654 35.7545 101.128 31.5402 98.8718C23.4179 94.5092 18.6044 92.6294 16.574 93.2315C14.2426 93.9835 11.986 99.1721 11.0086 101.878C8.22553 100.374 6.27004 98.7946 5.59299 97.2151C5.14214 96.2369 6.49547 93.003 10.1061 88.9415C14.468 84.0531 17.7776 81.5711 20.485 80.7443C22.1394 80.2178 24.772 79.6156 31.0144 86.1592C33.6462 88.9384 36.0533 92.8525 38.3091 96.914C38.6859 97.5911 40.2646 97.591 39.6632 96.3126C36.2787 89.3213 31.3896 83.2302 27.3289 80.4471C39.3621 73.6781 44.4767 75.182 45.3792 75.7842C48.3128 77.7397 53.8025 92.6309 54.4047 94.0599C54.705 94.8118 56.2845 95.3383 55.9834 94.1371C54.9304 90.2246 48.3877 75.3325 46.5827 74.1298Z" fill="#3D9CFB"/>
<path d="M144.43 105.266C144.28 105.717 143.829 107.673 143.678 108.123C142.09 105.102 140.09 102.318 137.734 99.8491C137.333 99.3897 136.813 99.0512 136.23 98.8717C136.606 98.0449 137.434 95.7883 137.207 95.0364C136.982 94.4342 136.08 94.4342 135.553 95.7134C134.876 97.2922 133.974 100.226 128.634 106.318C122.766 112.936 113.442 117.223 106.297 117.298C105.093 117.298 106.22 118.878 107.425 118.878C112.163 118.8 117.277 117.073 121.939 114.139C122.691 117.449 126.602 122.487 129.084 124.217C125.211 126.323 120.975 127.675 116.599 128.203C115.472 128.302 116.749 129.632 117.877 129.632C129.785 128.52 142.908 120.077 145.254 108.348C145.934 105.341 144.731 104.364 144.43 105.266ZM142.249 111.509C140.71 116.211 135.856 120.984 131.569 122.865C129.162 123.918 125.102 117.45 123.898 114.592C123.748 114.236 123.727 113.84 123.836 113.47C123.946 113.099 124.18 112.779 124.499 112.562C128.557 109.655 132.028 106.006 134.728 101.807C134.824 101.653 134.954 101.523 135.107 101.426C135.261 101.329 135.434 101.267 135.614 101.245C135.794 101.224 135.977 101.243 136.149 101.301C136.321 101.359 136.478 101.454 136.608 101.581C138.714 103.687 141.347 108.35 141.873 109.027C142.7 109.702 142.493 110.762 142.249 111.509Z" fill="#3D9CFB"/>
<path d="M124.048 124.52C122.863 123.372 120.484 119.681 119.386 117.751C119.345 117.663 119.286 117.585 119.213 117.522C119.141 117.459 119.055 117.411 118.963 117.383C118.871 117.355 118.774 117.346 118.678 117.358C118.582 117.369 118.49 117.401 118.407 117.45C116.828 118.052 121.717 124.595 123.673 125.874C124.199 126.175 124.66 125.112 124.048 124.52Z" fill="#3D9CFB"/>
<path d="M42.7472 79.4699C44.7876 79.876 45.9364 83.025 47.0342 85.3372C47.2511 85.7926 48.1628 85.5634 48.0872 85.0369C47.6356 82.7803 46.2066 80.6742 45.2308 79.2468C43.2004 76.4676 37.5593 78.6454 35.3027 79.9238C33.4229 81.0517 32.9566 82.4506 34.6265 81.6539C36.2654 80.868 40.2011 78.9619 42.7472 79.4699Z" fill="#3D9CFB"/>
<path d="M132.999 110.606C131.706 110.401 130.396 110.326 129.088 110.38C128.261 110.457 128.185 111.283 128.933 111.509C130.074 111.756 131.23 111.932 132.393 112.035C132.393 112.354 132.476 112.668 132.634 112.945C132.793 113.222 133.02 113.453 133.295 113.615C132.739 115.067 132.262 116.548 131.867 118.051C131.566 119.556 132.769 119.631 133.295 118.503C134.048 116.622 134.198 115.796 134.875 113.764C135.197 113.699 135.498 113.553 135.75 113.341C136.002 113.129 136.197 112.857 136.316 112.551C136.436 112.244 136.477 111.912 136.435 111.586C136.394 111.259 136.271 110.948 136.078 110.681C135.481 109.702 133.525 109.478 132.999 110.606Z" fill="#3D9CFB"/>
<path d="M108.705 40.2098C109.684 37.5024 107.727 33.366 103.817 31.7865C103.817 28.402 99.0785 19.2259 89.3034 23.9645C86.5952 16.669 77.4199 13.134 72.7569 18.7751C63.6565 11.6301 55.3868 15.4662 52.6763 24.4161C42.8988 18.7033 32.1409 26.8225 34.7765 35.0961C28.683 37.4275 28.1565 45.9258 33.1962 48.1824C35.452 49.2346 39.2881 48.2596 40.8676 43.1427C46.433 46.3766 60.4975 48.9327 67.1931 38.2543C72.9059 41.188 82.0094 39.1568 86.2207 35.848C91.1099 40.8112 97.2018 38.8588 100.585 37.1264C99.0785 42.6146 107.879 42.4656 108.705 40.2098Z" fill="#3D9CFB"/>
<path d="M67.7913 33.9683C65.761 41.2637 58.0147 44.6482 52.2231 44.7231C46.8831 44.7231 41.3933 42.8433 38.0089 38.4058C37.1064 37.2022 36.2039 39.9096 39.2116 42.2411C38.8312 43.2382 38.3525 44.1951 37.7827 45.0975C37.0307 46.3011 39.2873 46.0008 40.8668 43.3674C50.5656 49.5188 62.463 46.4555 67.4154 39.3816C72.5299 41.7887 81.6304 40.8862 85.5413 36.8996C89.3767 40.2092 95.3937 41.0368 99.6799 38.4042C99.981 39.1561 100.809 40.7357 101.862 40.7357C102.614 40.7357 100.959 39.7583 101.335 36.6741C101.56 35.0197 100.733 34.3427 99.6799 35.8473C97.4241 39.1561 90.2043 38.6265 86.8198 35.6929C88.3237 33.4363 87.3455 31.5557 86.897 32.4582C84.0406 37.8738 75.6156 40.2053 68.3958 37.7233C69.4458 34.3435 68.1681 32.689 67.7913 33.9683Z" fill="#001434"/>
<path d="M71.2518 88.7199C84.789 88.9453 91.2569 83.3799 91.7872 79.093C92.3894 74.6563 91.4869 71.3467 87.877 70.5191C82.7625 69.3163 78.9264 74.2795 72.5342 74.2795C67.3447 74.2795 60.4252 71.5003 57.1156 73.377C53.5057 75.4082 54.9347 80.2217 55.7623 81.8012C57.4885 85.0351 61.8503 88.5694 71.2518 88.7199ZM57.0369 77.4386C56.8863 75.2577 58.4659 74.3552 60.3457 74.8068C69.3712 76.6866 74.8594 77.4386 82.683 73.377C87.5721 70.8202 89.3022 73.2998 89.4519 74.7311C88.324 76.5361 83.8116 78.1156 85.842 78.717C86.3685 78.8714 88.6251 78.4167 90.129 77.1383C89.5276 82.8511 81.1791 86.4641 73.2066 86.6895C60.6468 87.0655 57.2623 81.3496 57.0369 79.6952C59.5938 80.7482 61.3238 80.9736 62.0765 79.9962C62.6779 79.2435 59.2904 78.9424 57.0369 77.4386Z" fill="#001434"/>
<path d="M21.6163 62.1713C22.4439 63.9762 24.0983 64.1268 25.5273 64.2765C26.0472 66.0433 26.6747 67.7766 27.4064 69.4667C26.8985 69.5417 26.3801 69.4919 25.8958 69.3214C25.4116 69.151 24.9761 68.8651 24.6272 68.4886C24.3261 68.1875 23.7177 68.1844 23.5742 68.4886C23.2576 69.1587 24.7777 71.5728 27.936 70.8201C28.2371 71.5728 28.312 71.948 28.613 72.0985C29.2144 72.1757 29.9671 71.6477 29.4406 70.2187C31.3205 69.0908 32.3743 66.7585 31.1699 64.803C30.1084 63.073 28.3822 62.9958 26.727 62.9232C26.6498 62.7727 25.5999 59.3882 25.2232 58.1854C27.5546 57.5832 27.7052 59.3133 28.7582 58.7868C29.0585 58.6363 29.1442 58.3298 28.9126 57.9592C28.0418 56.585 26.1334 56.4553 24.7762 56.8313C24.4751 56.2299 24.2497 55.5529 23.5726 55.5529C23.1966 55.5529 22.8207 55.8532 22.9704 56.2299C23.0695 56.6483 23.2212 57.0525 23.4221 57.4327C21.7638 58.4108 20.7108 60.2938 21.6163 62.1713ZM29.8143 65.6306C30.1117 66.1696 30.1837 66.8044 30.0146 67.3963C29.8455 67.9882 29.4491 68.4892 28.9118 68.7897C28.3853 67.3607 27.6326 65.7017 27.1069 64.3522C28.0811 64.5027 29.209 64.6533 29.8112 65.6306H29.8143ZM23.7973 58.8617C24.1732 59.9904 24.6249 61.2688 25.0008 62.697C24.5717 62.7177 24.1456 62.6155 23.7726 62.4025C23.3995 62.1894 23.095 61.8743 22.8948 61.4942C22.6961 61.0214 22.678 60.4922 22.8438 60.0069C23.0096 59.5216 23.3478 59.1141 23.7942 58.8617H23.7973Z" fill="#001434"/>
<path d="M34.926 53.2961C32.5945 52.3936 31.7669 56.0792 33.9479 56.7562C35.9033 57.4325 36.9564 54.1237 34.926 53.2961Z" fill="#001434"/>
<path d="M139.843 92.7816C139.647 92.6192 139.496 92.4097 139.404 92.1728C139.312 91.9358 139.281 91.6793 139.316 91.4275C140.595 82.8536 133.299 69.6167 122.921 73.6782C122.564 73.3311 122.187 73.0045 121.792 72.7001C122.255 72.1431 122.612 71.506 122.845 70.8203C128.11 71.4217 127.057 63.2994 123.297 58.5616C126.38 56.1545 126.455 48.107 122.168 44.948C123.372 37.6533 118.032 28.2518 109.307 27.6504C108.481 19.7535 99.2296 13.8871 91.1822 16.1429C82.3813 7.04321 55.6081 2.75548 46.3571 16.4439C37.3324 13.5103 24.3958 20.2044 24.0955 30.8843C20.4398 33.1156 17.6339 36.5038 16.123 40.5113C13.5661 46.9791 16.1369 54.9069 17.3266 54.3495C17.7836 54.1357 17.7025 53.6725 17.552 52.9205C16.4159 49.1339 16.5344 45.0815 17.8898 41.3678C19.2451 37.654 21.7648 34.478 25.0729 32.3133C25.3103 32.1362 25.507 31.9102 25.6497 31.6507C25.7925 31.3912 25.878 31.104 25.9005 30.8087C26.0888 20.5001 42.0702 13.5111 49.2923 20.28C50.1948 21.1069 50.7213 19.0765 48.1644 17.1959C58.8436 4.18446 82.3095 10.352 90.2064 17.1959C90.4833 17.4309 90.8097 17.6003 91.1613 17.6914C91.5129 17.7826 91.8805 17.7932 92.2367 17.7224C99.2311 16.1429 107.58 22.1599 107.429 28.4772C107.438 28.7091 107.525 28.9312 107.674 29.1084C107.824 29.2856 108.029 29.4077 108.256 29.4554C118.485 30.5833 120.59 38.555 120.214 44.7975C120.193 45.1494 120.274 45.4999 120.448 45.8069C120.621 46.1138 120.88 46.3641 121.192 46.5275C124.203 48.7084 123.9 55.6279 122.245 57.2824C107.655 40.5113 108.633 41.4137 79.6013 45.7794C75.2395 46.4565 76.5905 49.3894 73.734 49.9915C70.4993 50.6686 69.8339 50.4926 68.8449 50.0687C66.6123 49.1083 67.6421 46.6842 62.4519 47.2123C57.6385 47.7388 39.2917 48.4159 35.4517 50.8222C36.0678 50.8841 36.6605 51.0904 37.1818 51.4244C38.7451 52.9877 39.6962 61.6967 38.9868 64.9615C38.908 65.5274 38.6113 66.0401 38.1599 66.3905C42.5218 73.7616 61.7 71.4294 64.558 64.5855C64.6352 67.3686 66.9651 69.6244 70.1234 70.1509C74.1849 70.828 78.5159 68.126 78.2464 66.4662C78.1607 65.9412 77.7199 65.7135 76.968 66.389C74.8619 68.2696 70.8753 68.495 68.3941 67.066C66.5883 66.013 66.1375 63.6815 67.1905 60.6738C68.1679 57.9656 71.1764 53.5281 76.3658 56.9126C78.8478 58.4921 80.3517 63.3804 84.1121 65.7906C88.3242 68.4981 97.7257 66.9942 101.714 65.1893C105.098 63.6846 106.452 53.3057 106.452 53.3057C111.642 54.6598 114.048 53.2285 117.057 55.7121C122.321 59.9998 123.976 67.2196 120.366 71.5066C105.853 60.2253 97.1289 69.7016 104.572 82.6374C99.4573 86.4735 96.675 91.2839 95.771 96.4764C85.7681 101.139 71.1023 102.189 60.7991 98.8828C49.6683 91.4367 37.1834 98.4311 31.6944 107.761C31.5155 107.998 31.2687 108.176 30.9866 108.27C30.7045 108.364 30.4005 108.37 30.1149 108.287C24.7 107.084 21.3912 109.265 19.9622 112.499C19.2926 114.201 19.0858 116.049 19.3629 117.857C19.6399 119.665 20.3909 121.367 21.5394 122.79C20.4864 126.325 16.1238 133.319 14.6199 137.004C13.6418 139.336 15.6729 138.96 16.9514 136.704C19.3854 132.628 21.5703 128.409 23.4941 124.069C33.1967 129.409 53.878 139.561 66.3629 137.757C62.9035 144.752 61.2491 147.233 63.2039 146.635C65.1586 146.038 69.522 136.331 71.628 131.067C75.915 120.688 76.6669 110.309 65.4604 101.885C76.0655 103.314 85.3913 102.788 95.5448 98.6511C94.3405 116.325 113.294 137.91 131.194 137.459C155.56 136.779 155.111 108.199 139.843 92.7816ZM49.7416 66.3079C48.538 66.5333 47.2596 65.4054 42.4461 60.8174C40.6412 59.0881 42.7472 58.2605 45.0787 60.3665C49.8921 64.6535 50.7213 66.1612 49.7416 66.3079ZM54.3296 64.127C51.8476 61.8704 46.3571 56.8315 44.3267 54.5749C42.2964 52.3184 44.4811 52.2435 46.5833 54.0484C49.2151 56.3799 53.4272 60.1403 55.9092 62.7721C57.9395 65.0294 57.1876 66.8344 54.3296 64.127ZM52.3741 54.199C50.1932 52.0929 51.2462 50.965 53.3515 52.6194C55.4575 54.3495 59.7445 57.2824 59.9707 59.4641C60.1969 61.6457 54.5551 56.3799 52.3741 54.199ZM88.6268 62.2464C86.9809 62.6578 82.9858 58.5616 81.6324 57.0569C80.5794 55.8534 80.5794 53.2216 82.9858 55.4774C87.7977 59.84 90.289 61.8302 88.6268 62.2464ZM97.3505 60.893C96.3732 61.1185 95.6212 60.7386 92.4622 58.3354C89.8997 56.3826 87.4397 54.299 85.0918 52.0929C83.0614 50.0625 84.0388 48.3332 85.5434 49.536C97.9511 59.5389 98.3271 60.6676 97.3505 60.893ZM99.3817 56.0047C97.6516 55.7785 94.4177 52.8456 92.3124 51.1156C90.2812 49.3855 90.8078 47.2795 93.1392 49.235C95.4707 51.1904 102.088 56.305 99.3801 56.0047H99.3817ZM65.838 104.664C61.3256 107.898 58.4676 113.013 59.8935 113.311C61.3194 113.609 63.5791 108.723 67.49 106.166C75.9883 114.812 72.4533 124.968 67.4128 135.723C57.5605 137.829 40.8643 132.113 24.1673 122.11C22.2875 120.981 20.1814 116.846 21.6861 113.232C24.3927 106.764 31.1617 112.706 33.3434 109.171C36.8776 103.227 45.6778 95.7839 54.552 98.2659C50.1901 100.522 45.5272 107.592 48.4601 107.14C49.6636 106.99 51.7697 102.553 56.9591 99.0927C60.1776 100.5 63.1693 102.378 65.8364 104.664H65.838ZM126.006 135.2C118.485 133.244 109.234 127.227 101.563 115.344C100.089 112.75 98.9754 109.967 98.253 107.071C96.824 101.506 97.1251 96.3915 98.93 92.7816C102.24 92.7044 105.924 95.5647 106.977 96.4671C108.03 97.3696 108.783 95.9406 108.106 95.113C106.827 93.5335 102.616 91.3526 99.9831 90.9766C101.638 87.4416 104.045 84.8847 106.075 84.4331C108.256 83.9822 111.34 86.0875 114.273 88.0438C115.401 88.7957 115.907 87.1614 115.026 86.2388C113.404 84.545 108.708 82.1016 106.379 81.9511C104.57 79.3193 100.809 69.0948 109.085 68.9404C113.221 68.9404 118.863 72.0995 126.308 79.395C126.684 79.7709 127.436 79.4722 127.362 78.9433C127.211 77.6649 126.157 76.4621 124.505 75.1829C133.907 73.0776 137.742 84.5049 137.592 91.805C137.575 92.2749 137.653 92.7435 137.821 93.1827C137.989 93.622 138.244 94.023 138.57 94.3619C159.845 116.501 145.934 140.164 126.004 135.2H126.006Z" fill="#001434"/>
</svg>
