<svg width="155" height="155" viewBox="0 0 155 155" fill="none" xmlns="http://www.w3.org/2000/svg">
<path d="M17.3162 90.4252C10.9163 90.7571 7.51945 96.5317 8.05213 107.093C8.30689 112.451 12.3291 120.989 17.9801 121.421C22.9673 121.807 28.0162 117.638 27.9622 109.069C32.5104 108.382 37.0926 107.944 41.6885 107.757C41.9201 106.776 44.6993 101.241 44.6993 101.241C44.6993 101.241 30.9344 102.013 27.0898 102.299C26.7733 97.2729 23.3996 90.1009 17.3162 90.4252ZM19.5936 115.647C11.5184 115.647 10.4068 96.9872 17.1773 95.8833C23.9478 94.7793 26.3487 115.654 19.5936 115.647Z" fill="#3D9CFB"/>
<path d="M98.6703 97.2732L63.984 100.037C63.984 100.037 67.0103 103.55 67.6974 105.526C75.4174 104.854 80.366 104.484 80.42 104.638C80.4741 104.793 81.3773 109.996 81.3773 109.996L84.8745 109.726L85.2451 106.761L88.0012 106.352V103.58C88.0012 103.58 91.1818 103.812 91.2359 103.804C91.2899 103.797 92.4016 107.718 92.556 107.796C92.7104 107.873 96.0069 107.34 96.0069 107.34V102.569L99.2879 102.098L98.6703 97.2732Z" fill="#3D9CFB"/>
<path d="M84.8516 12.5603C89.005 12.3827 89.2366 12.7456 89.6767 13.6952C91.7457 18.2268 97.2115 17.3545 106.445 17.9335C127.52 19.2768 115.068 12.6298 126.27 13.2165C137.31 13.7955 136.924 19.1455 137.124 21.477C138.267 34.6011 132.183 63.9914 130.307 77.5479C127.868 95.304 124.571 111.686 121.7 128.717C121.059 132.484 117.469 134.576 106.028 133.349C104.916 133.225 104.885 134.707 106.615 135.078C112.42 136.321 122.502 135.904 123.344 130.531C126.887 107.934 131.936 84.9051 135.241 58.8035C139.958 21.6082 145.277 12.1203 124.386 11.2325C117.122 10.9159 120.603 16.4667 113.74 16.1579C107.348 15.8645 93.668 16.9762 91.7997 13.6643C90.5336 11.1475 90.2557 10.2674 84.6972 10.6766C76.5757 11.356 74.3523 15.3704 72.3451 24.1018C70.168 33.6979 67.9833 49.2693 65.8602 58.3867C65.7367 58.9039 66.0378 59.537 66.5628 59.537C68.7167 59.537 69.4192 47.455 70.8088 42.4833C73.727 32.1847 72.2756 13.1239 84.8516 12.5603Z" fill="#3D9CFB"/>
<path d="M112.49 98.0448C114.281 91.6989 118.056 66.2613 117.083 63.2273C116.311 60.9113 114.211 59.7533 110.652 58.989C111.826 51.3152 115.508 39.6502 111.116 34.3619C109.572 32.4551 107.109 31.4978 103.867 31.4978C91.5762 31.4978 89.484 35.9446 85.7861 56.395C84.374 56.2315 82.9432 56.4059 81.6117 56.9039C80.2802 57.4018 79.0861 58.2091 78.1278 59.2592C77.0702 60.5176 78.2359 61.745 79.7953 60.2705C82.9915 57.2442 87.2761 58.1398 94.7491 58.9813C101.643 59.7533 114.675 60.4095 115.269 63.8063C115.671 66.1223 112.621 90.595 110.637 97.5276C109.757 100.662 108.321 101.943 101.898 101.866C100.215 102.067 100.995 103.665 102.539 103.773C108.151 104.167 111.17 102.8 112.49 98.0448ZM87.7084 56.4336C91.4141 36.0372 93.3749 33.4201 103.867 33.4047C106.553 33.4047 108.452 34.1149 109.649 35.574C113.393 40.0825 109.842 51.6163 108.784 58.6493C102.824 57.8232 94.0157 56.9354 87.7084 56.4336Z" fill="#3D9CFB"/>
<path d="M147.183 19.069C146.218 6.94847 136.792 4.17697 110.637 4.14609C97.9525 4.14609 87.0826 3.20424 81.2153 4.77913C71.6193 7.36536 69.5426 13.1245 67.1108 24.4576C65.0186 34.2235 62.7103 45.7032 61.2358 53.709C61.2125 53.8327 61.214 53.9599 61.2403 54.0831C61.2666 54.2063 61.3171 54.323 61.389 54.4265C61.4608 54.5299 61.5525 54.6181 61.6588 54.6857C61.765 54.7534 61.8837 54.7993 62.0078 54.8206C62.2576 54.8656 62.515 54.8096 62.7235 54.6648C62.9319 54.52 63.0744 54.2984 63.1195 54.0486C64.594 46.0584 67.1031 34.6404 68.9867 24.8513C73.3409 2.02306 84.0409 5.92942 107.757 5.99118C136.684 6.06838 144.674 9.75858 145.292 19.2543C146.35 35.4664 141.849 57.6771 138.745 76.1358C136.221 91.159 132.654 116.851 130.477 132.222C129.52 139 126.548 142.181 104.777 139.988C102.407 139.749 102.253 141.494 104.777 141.895C108.817 142.375 112.883 142.615 116.952 142.613C134.067 143.038 132.731 135.549 134.916 118.172C136.568 104.939 138.861 89.2367 141.092 76.1358C144.628 55.0754 148.326 33.4052 147.183 19.069Z" fill="#3D9CFB"/>
<path d="M95.8447 67.8593C91.4829 67.481 86.8277 71.1712 91.5215 77.1234C92.6255 78.513 85.4921 86.0787 86.5266 88.2017C87.9548 91.1353 95.6594 91.475 96.8947 90.5872C99.2107 88.9042 95.5128 78.7369 97.6126 77.7024C103.318 74.8846 100.932 68.2994 95.8447 67.8593Z" fill="#3D9CFB"/>
<path d="M95.2431 11.1866C94.0002 13.5026 107.796 14.1897 108.568 12.5453C110.174 9.12533 96.1 9.58082 95.2431 11.1866Z" fill="#3D9CFB"/>
<path d="M113.872 10.0361C111.069 10.1442 111.1 13.9348 113.478 14.1123C116.713 14.3903 116.373 9.9821 113.872 10.0361Z" fill="#3D9CFB"/>
<path d="M100.446 97.6207C100.284 94.4092 98.9717 93.8225 95.8682 94.0772L84.0024 94.9033C82.057 87.7082 79.5711 83.6474 77.34 79.8646C81.5629 79.3859 81.4162 67.636 77.6334 66.3622C70.8552 63.305 68.9869 57.129 60.5103 65.1347C54.3961 64.1255 48.1248 64.7159 42.3063 66.8485C36.6244 62.2165 32.8261 62.4018 23.6315 71.8511C21.9717 73.5496 22.8595 78.0272 23.9634 80.7138C25.0829 83.1688 25.9938 84.0952 27.8235 83.6165C26.6277 86.1321 25.6663 88.7526 24.9516 91.4447C18.1966 83.1919 8.3303 87.8008 7.10281 100.284C6.3308 108.776 10.8934 120.796 20.2269 119.808C20.9337 123.887 22.1366 127.864 23.809 131.651C18.0576 132.091 16.6911 139.695 21.5316 141.996C21.8939 142.747 22.4138 143.412 23.0558 143.945C23.6979 144.478 24.4472 144.866 25.2527 145.084C25.7622 148.604 29.6223 150.125 32.9728 149.338C34.7252 150.936 38.1993 150.959 39.8745 149.392C44.0125 152.433 50.9451 148.975 49.6945 143.578C54.1868 144.116 58.7146 144.296 63.2355 144.119C62.3554 149.469 68.5777 152.148 72.4995 149.592C73.6516 150.264 74.9677 150.603 76.3009 150.57C77.6342 150.537 78.9321 150.135 80.0498 149.407C84.6123 150.889 89.2135 148.542 88.6808 144.134C88.9757 144.069 89.2629 143.974 89.5377 143.849C98.1456 146.087 99.8826 133.565 91.8538 133.156C93.7529 124.124 99.0025 113.941 85.9325 107.348C86.0646 106.582 86.0646 105.798 85.9325 105.032C87.9628 105.179 89.6844 104.345 88.9433 102.083C89.3139 102.013 89.9083 101.967 90.3406 101.936C90.688 105.796 91.5836 106.615 94.7565 106.236C97.4122 105.92 97.1883 104.26 96.8178 101.164C100.361 100.825 100.57 99.296 100.446 97.6207ZM76.8691 68.0992C78.7605 68.6087 79.3318 76.3828 77.2474 77.9732C74.3524 77.9732 68.709 72.793 68.5391 65.8449C68.0296 63.8609 66.0687 65.3586 66.7095 66.918C65.4591 66.3863 64.1684 65.9552 62.8495 65.6288C69.342 60.078 69.7203 64.9494 76.8691 68.0992ZM26.9357 81.8332C25.9012 81.9567 23.6469 73.8429 24.9902 73.1558C33.1967 64.7332 36.138 64.5479 40.2605 67.6514C38.9414 68.2219 37.6529 68.861 36.4005 69.566C36.8714 68.022 34.6866 66.7636 34.455 68.74C34.7407 76.1049 31.4133 80.4899 26.9357 81.8332ZM30.9192 81.9799C33.6521 79.5403 35.4972 77.3478 36.3233 71.7894C49.3316 63.9381 61.8999 66.532 67.1187 69.1723C68.3153 74.0436 71.7507 77.811 74.8387 79.2084C77.618 84.0566 79.9803 87.353 82.1265 94.9959C76.4291 95.4514 69.9442 95.9378 63.3049 96.5013C60.7033 94.1853 53.4927 97.5049 54.2647 92.0314C62.8572 87.6618 51.9487 83.1302 48.8993 88.4261C47.8802 90.1786 50.1422 91.9002 52.4042 92.1626C53.0372 96.6634 48.2354 95.297 44.9234 97.8369C36.8868 98.3001 34.3083 98.6089 27.7694 99.0798C27.5389 97.2948 27.0662 95.5494 26.3644 93.8919C27.0901 89.8852 29.1899 84.4426 30.9192 81.9953V81.9799ZM66.1845 103.341C69.7975 111.208 63.7218 113.717 54.4577 114.25C49.2467 114.551 43.8812 114.698 41.6193 111.447C42.4762 104.584 41.7659 99.3269 51.1921 97.5049C52.0899 97.3575 52.8968 96.8711 53.4464 96.1462C55.1757 98.7633 63.3049 94.3088 66.1845 103.357V103.341ZM17.5481 89.2367C26.7658 89.754 23.7859 100.917 27.947 100.948C33.5518 100.539 36.2847 100.246 42.7078 99.8441C41.7775 101.082 41.0863 102.483 40.6697 103.974C36.3233 104.337 33.0268 104.661 28.6572 105.024C24.0252 105.935 29.0047 115.755 20.7673 117.716C7.25721 120.881 4.47798 89.2985 17.5712 89.2522L17.5481 89.2367ZM40.276 105.912C39.6198 110.838 40.1833 116.496 34.3855 117.276C33.104 117.446 29.9542 117.539 27.368 113.933C29.7535 103.573 26.2486 107.912 40.2991 105.928L40.276 105.912ZM20.9758 139.186C19.4318 136.646 20.9217 133.488 24.5579 133.504C24.6814 133.789 24.7972 134.067 24.9053 134.33C23.8477 134.665 22.9136 135.307 22.2221 136.174C21.5306 137.042 21.1128 138.095 21.0221 139.201L20.9758 139.186ZM25.2064 143.046C21.6165 141.772 22.3886 136.314 26.2486 136.044C26.391 136.039 26.5306 136.002 26.6569 135.936C26.7833 135.87 26.8932 135.777 26.9785 135.663C27.0637 135.548 27.1222 135.417 27.1495 135.277C27.1769 135.137 27.1724 134.993 27.1364 134.855C25.3531 129.821 23.562 127.698 22.0411 119.33C23.2851 118.9 24.4132 118.189 25.3376 117.253C25.7005 123.993 29.9079 132.693 29.3675 138.946C28.3419 139.117 27.3947 139.603 26.6575 140.336C25.9202 141.069 25.4292 142.013 25.2527 143.038L25.2064 143.046ZM86.2721 146.381C85.5001 147.701 83.7708 148.164 81.4085 147.755C82.9525 144.613 80.8835 140.475 77.1625 140.73C76.9113 140.742 76.6749 140.852 76.5044 141.037C76.3339 141.222 76.2431 141.466 76.2515 141.718C76.2674 141.969 76.38 142.204 76.5657 142.374C76.7514 142.544 76.9958 142.635 77.2474 142.629C82.9911 143.501 79.162 150.75 73.8351 148.21C77.2319 143.517 69.921 137.402 71.3415 142.166C72.708 143.215 72.8855 145.416 72.7157 146.118C70.2684 151.522 60.9966 147.925 67.1727 140.243C68.1995 136.97 68.0219 134.299 66.3235 127.25C66.2998 127.124 66.2507 127.004 66.1792 126.897C66.1076 126.79 66.0151 126.699 65.9072 126.629C65.7993 126.559 65.6783 126.511 65.5516 126.489C65.4248 126.467 65.2949 126.472 65.1698 126.501C65.0447 126.531 64.927 126.586 64.8237 126.663C64.7205 126.74 64.6339 126.837 64.5692 126.948C64.5046 127.059 64.4632 127.182 64.4476 127.31C64.432 127.437 64.4424 127.567 64.4784 127.69C66.2386 136.051 66.9179 137.495 63.8531 142.15C58.8968 142.387 53.9294 142.191 49.0074 141.563C46.2745 137.356 47.2472 132.299 48.6059 126.988C48.7294 126.478 48.467 125.853 47.942 125.822C45.626 125.675 45.2863 136.368 45.6954 138.661C46.205 141.54 48.0115 141.957 47.7953 145.107C46.9152 151.376 36.6938 148.295 40.6774 143.046C41.1174 138.576 36.0917 144.343 38.5544 147.948C34.3006 151.306 30.0623 142.984 35.7211 142.544C35.8455 142.568 35.9734 142.568 36.0975 142.542C36.2216 142.516 36.3393 142.466 36.4436 142.394C36.5479 142.322 36.6368 142.23 36.7049 142.123C36.7731 142.016 36.8192 141.897 36.8405 141.772C35.6516 137.997 29.1205 143.107 31.6681 147.546C28.4642 147.956 26.071 145.547 27.3062 142.606C27.4805 142.223 27.7294 141.879 28.0383 141.593C28.3472 141.307 28.7099 141.086 29.1052 140.943C29.5006 140.799 29.9206 140.735 30.3407 140.756C30.7609 140.776 31.1728 140.88 31.5523 141.062C33.5827 141.448 32.9419 138.838 31.2358 138.985C31.7839 132.361 27.4452 123.614 27.1518 116.658C31.8611 121.499 39.9054 119.067 41.0943 113.787C47.4633 118.241 64.7254 116.566 68.4619 111.038C70.3456 115.925 77.0621 116.628 81.2695 114.196C83.3926 120.001 80.0498 132.075 81.3467 138.444C79.5788 138.599 79.1311 141.285 81.2541 140.591C84.0719 138.529 88.2794 143.501 86.3185 146.373L86.2721 146.381ZM68.323 103.92C73.4491 103.449 74.8619 103.38 79.3781 103.017C79.8568 107.263 80.0575 109.077 83.161 108.568C81.9875 114.01 75.0008 114.813 71.6349 112.312C69.481 110.243 69.1722 106.476 68.3693 103.92H68.323ZM89.5532 141.455C89.231 141.86 88.7729 142.134 88.2639 142.227C87.8394 141.203 87.1659 140.301 86.3045 139.602C85.443 138.904 84.4209 138.432 83.3308 138.228V138.159C85.8012 134.137 91.8692 137.541 89.5532 141.455ZM91.0972 128.563C91.0277 130.493 88.3025 134.785 91.0046 135.163C96.5476 134.029 96.5398 142.451 91.4369 142.065C94.1003 137.093 87.2758 131.875 83.0838 135.758C82.775 129.15 85.3998 118.442 82.9448 112.999C84.0569 111.915 84.818 110.522 85.1296 109C94.9572 113.74 93.0427 120.951 91.0277 128.563H91.0972ZM96.5939 99.2265C94.054 98.9949 95.4976 104.206 95.1657 104.221C92.8496 104.584 92.5563 104.677 92.317 101.851C92.1085 100.045 91.1512 99.8904 90.2171 99.9908C87.7621 99.9908 86.5887 100.832 87.2449 103.002C84.5506 102.855 83.7168 103.905 84.2109 106.568C83.48 106.643 82.745 106.668 82.0107 106.646C81.424 105.812 82.1265 100.809 79.4862 101.079C74.6766 101.566 73.3719 101.519 67.798 102.044C67.2651 100.629 66.4804 99.3208 65.482 98.1843C77.9962 97.1575 87.0442 96.5554 96.0303 95.9378C98.4004 95.7679 98.4467 95.7679 98.5702 97.559C98.6243 98.8174 98.7632 99.103 96.5013 99.2574L96.5939 99.2265Z" fill="#001434"/>
<path d="M57.4063 83.447C56.4722 89.5536 65.4969 95.6602 72.2366 94.6488C76.2587 94.0467 77.2469 88.2798 75.0389 88.025C74.5217 87.9632 74.128 88.5268 74.1743 89.0518C74.2747 95.1429 66.8016 92.9118 63.7445 90.3951C70.2911 90.534 74.2824 82.1423 69.4187 78.3826C70.5227 76.4758 68.8783 75.8505 68.1526 76.8386C66.9174 78.4676 63.922 79.4094 62.2699 80.3821C61.2034 81.1459 59.9491 81.6049 58.6415 81.71C56.7424 81.7872 54.7815 79.7491 56.2637 77.6569C56.7501 76.9699 56.202 75.3409 54.8201 76.4217C52.1567 78.4676 54.3878 82.7831 57.4063 83.447ZM67.8361 79.6951C70.9241 81.3085 69.797 86.0487 66.8325 87.6313C66.4744 85.4233 65.6876 83.3069 64.5165 81.4012C64.5551 81.3626 67.6663 79.7954 67.8361 79.6951Z" fill="#001434"/>
<path d="M35.289 97.5281C41.6813 97.5281 50.2042 89.9933 47.9422 83.9407C55.037 80.2042 46.7534 72.9628 48.0735 77.9963C48.4302 78.2513 48.6971 78.6128 48.8358 79.0289C48.9744 79.4449 48.9778 79.8942 48.8455 80.3123C47.8419 83.4003 44.391 82.3736 42.1059 81.5321C40.3689 80.6829 36.6015 80.6983 35.9298 78.6525C35.8977 78.529 35.8412 78.4132 35.7636 78.3119C35.6861 78.2106 35.5891 78.1258 35.4784 78.0626C35.3676 77.9993 35.2453 77.9587 35.1187 77.9434C34.992 77.928 34.8636 77.9381 34.7409 77.9731C33.2896 78.5367 34.4707 80.2891 35.2736 80.9994C31.3518 85.3844 35.9144 93.2511 42.3684 92.3633C39.7899 95.1426 33.251 97.999 32.4249 92.317C32.3786 91.792 31.8922 91.2902 31.3981 91.4524C29.2365 92.1858 31.4599 97.5281 35.289 97.5281ZM39.0719 90.0319C36.0919 88.7812 34.3318 84.1492 37.0569 82.0339C38.1764 82.4276 39.6123 82.7673 40.7703 83.1764C39.8151 85.3472 39.2406 87.6662 39.0719 90.0319Z" fill="#001434"/>
<path d="M21.2693 94.8493C16.8611 89.2831 11.5883 94.8493 11.7427 102.523C11.8585 108.197 14.3752 114.837 19.2312 114.358C26.4263 113.64 24.9131 99.4504 21.2693 94.8493ZM21.0299 111.169C17.5405 115.886 13.611 107.603 13.4411 103.117C13.2713 98.4082 15.9193 91.3057 19.7098 95.9069C22.242 99.5894 23.3305 108.081 21.0299 111.169Z" fill="#001434"/>
</svg>
