<svg width="155" height="155" viewBox="0 0 155 155" fill="none" xmlns="http://www.w3.org/2000/svg">
<path d="M103.772 77.343C102.336 75.992 99.4104 76.6636 92.1149 79.8983C91.3044 80.262 90.3828 80.2897 89.5518 79.9755C85.3438 78.2319 80.9353 77.0182 76.4277 76.3625C74.0268 76.1386 69.7267 72.9502 68.0823 73.4289C66.8703 73.784 66.353 76.0614 65.6736 80.6549C65.527 81.4809 65.5964 81.8592 64.9016 82.307C62.7941 83.7352 58.4322 86.939 57.7528 89.147C56.5485 92.76 58.2083 99.0055 58.2083 99.0055C62.2716 99.6059 66.0797 101.352 69.1863 104.039C54.5181 96.2186 48.5814 106.973 55.1203 108.1C55.7225 110.809 59.1811 113.504 61.8908 110.362C62.6628 112.014 62.6628 113.365 66.106 113.82C69.2635 114.268 70.738 111.033 70.6145 108.555C72.7248 109.612 75.0287 110.227 77.385 110.362C77.385 110.362 79.5621 106.973 85.5065 105.544C87.5991 105.061 89.7844 105.165 91.8215 105.845C88.2935 105.699 83.5533 107.274 81.2219 110.13C78.1338 113.99 80.4499 116.6 80.4499 116.6C80.4499 116.6 81.5075 117.202 82.9357 115.928C89.1118 120.56 91.3583 114.569 91.3583 114.569C91.3583 114.569 92.3388 116.823 95.5658 115.928C98.1288 115.249 97.8818 110.586 96.0984 107.953C97.2256 107.127 102.792 102.912 103.819 99.5305C104.421 97.5001 102.838 92.5361 102.769 88.8536C102.792 85.6189 105.27 78.7712 103.772 77.343ZM90.3084 103.066C88.5113 102.636 86.9491 101.53 85.9466 99.9782C84.5029 104.093 80.3263 103.174 78.5739 99.9782C78.5739 99.9782 75.5322 103.113 72.5599 100.959C71.3402 100.079 71.1317 97.9478 71.8806 96.5196C69.248 98.1022 65.7894 98.0636 63.6819 95.6164C58.5712 89.7491 67.4415 81.0254 73.6099 85.92C76.6979 88.3981 76.1652 92.0111 74.1348 94.6437C74.8578 94.577 75.5855 94.7049 76.2424 95.0142C76.6207 97.0446 78.7283 98.4728 78.7283 98.4728C80.0129 98.0881 81.2294 97.5046 82.3336 96.7435C83.1056 96.2957 84.2173 96.9751 84.8889 97.2762C83.7927 92.3431 89.0037 87.4408 94.153 89.3786C101.51 92.1423 98.731 104.417 90.3084 103.066Z" fill="#3D9CFB"/>
<path d="M73.61 61.0229C72.5601 57.7882 61.2039 58.3904 62.1766 64.4815C62.9332 68.6194 74.9147 64.8598 73.61 61.0229Z" fill="#3D9CFB"/>
<path d="M119.49 56.9622C121.034 51.4732 106.775 52.5231 107.98 56.0589C109.562 60.4902 118.286 61.2623 119.49 56.9622Z" fill="#3D9CFB"/>
<path d="M87.8993 86.8927C87.5017 86.3542 87.0739 85.8387 86.6178 85.3487C85.8843 84.5767 84.3635 85.3487 85.4211 86.7769C86.4788 88.2051 88.9492 88.3981 87.8993 86.8927Z" fill="#001434"/>
<path d="M136.86 79.4506C138.404 78.1691 139.269 76.2931 138.404 74.3322C148.71 73.3595 143.299 64.5586 146.757 60.1968C154.724 50.1607 147.529 48.3851 148.263 41.4679C148.633 37.8626 148.865 35.3767 148.263 33.7478C146.379 28.2588 140.288 30.212 139.909 24.0437C139.307 13.8146 132.012 13.0657 125.62 12.9113C112.495 12.6874 114.263 0.126882 100.807 6.37242C91.327 10.7343 87.3434 -0.845848 78.1643 9.46045C71.8493 16.532 65.0401 7.50727 59.8137 18.4852C56.88 25.0318 50.04 19.1646 47.2531 28.7915C42.8913 24.8774 36.9545 27.8883 33.6426 32.999C27.9684 21.6582 15.0604 26.8229 10.4052 54.6615C5.77314 67.222 3.18692 82.5618 4.01297 90.2356C5.2945 114.523 26.9493 120.545 44.4739 114.755C40.4903 127.686 45.076 143.319 59.5126 146.638C82.225 154.088 125.905 149.865 138.257 136.788C150.455 123.887 151.752 91.3704 136.86 79.4506ZM136.482 77.1346C130.916 83.6735 115.576 90.8223 105.648 91.6484C104.598 89.5408 104.443 88.7919 104.822 86.005C111.816 85.1789 124.824 79.7672 133.1 71.113C134.081 72.2324 138.219 74.7877 136.482 77.1192V77.1346ZM90.3079 114.739C88.8797 118.344 84.1319 116.538 83.3136 114.137C82.6342 112.176 81.4299 114.206 81.9548 115.642C76.242 118.499 75.1148 109.698 85.2667 106.618C92.485 104.356 100.838 111.582 95.4958 114.662C93.1798 116.013 92.2611 114.06 91.2807 112.855C90.609 111.86 89.4819 113.218 90.3079 114.724V114.739ZM76.9213 109.474C75.0636 109.325 73.2636 108.758 71.6562 107.814C70.4519 101.8 63.5347 97.8167 58.1152 98.0406C49.793 83.8125 61.4194 84.9165 63.3803 79.5124C64.438 76.8027 65.4107 71.6842 66.9933 71.1593C68.8693 70.5571 74.2888 76.6869 76.1648 76.9493C80.1537 77.5751 84.0626 78.6339 87.8221 80.1068C92.4155 83.1177 99.0316 75.5983 102.714 77.482C104.822 78.5319 102.042 87.7806 102.938 89.8882C106.798 99.0596 106.474 103.954 97.6729 109.188C92.7706 101.877 81.1674 103.8 76.9213 109.459V109.474ZM62.3304 107.668C61.8715 107.962 61.5022 108.377 61.2626 108.867C61.023 109.357 60.9224 109.904 60.9717 110.447C57.7447 112.408 54.2089 108.903 57.0653 106.015C57.8914 105.182 55.4132 104.055 54.4328 106.787C46.9906 105.583 54.51 96.7513 63.4575 101.221C71.8029 104.379 71.7335 114.307 65.264 113.033C62.2532 112.431 62.5543 109.945 63.3031 108.818C63.3891 108.714 63.4464 108.59 63.4694 108.457C63.4924 108.324 63.4803 108.188 63.4342 108.061C63.3882 107.934 63.3098 107.822 63.2069 107.735C63.104 107.648 62.9802 107.589 62.8476 107.565C62.6703 107.533 62.4873 107.563 62.3304 107.652V107.668ZM132.421 69.0671C124.601 77.6441 111.97 83.0559 105.022 84.0364C106.752 66.589 95.4727 81.6277 88.4783 78.393C84.6026 76.8609 80.5724 75.753 76.4581 75.0888C70.4442 70.8736 65.4802 64.4042 62.701 75.691C56.9032 70.5031 57.4359 64.0336 57.5054 54.7078C60.5162 62.3044 67.9583 56.136 73.455 56.8849C82.0243 57.958 81.9008 43.1586 73.3778 39.5919C69.4637 38.0479 63.2259 38.8199 58.7869 42.3711C59.0108 34.0952 65.3335 38.3876 71.0464 35.9789C73.2234 36.3572 74.4278 37.4071 75.4854 37.631C76.2574 37.7854 76.5199 36.4498 75.7865 35.8322C73.3469 33.7864 72.2893 35.8708 75.6321 33.1997C82.0243 37.3299 90.9024 29.965 96.9163 23.2717C98.3445 24.9238 99.7033 28.0041 101.734 29.2084C99.9055 29.8279 98.3231 31.0153 97.2174 32.5975C96.237 34.0257 97.2174 34.9985 97.9894 34.1415C98.7422 33.1441 99.7049 32.3242 100.809 31.7399C101.914 31.1556 103.134 30.8211 104.382 30.7601C107.995 32.4122 112.434 32.3041 117.622 30.6057C120.239 47.8601 133.587 39.6459 137.385 49.682C139.531 55.3408 137.308 63.7326 132.421 69.0671ZM60.9717 42.8961C70.5291 37.8626 75.7942 41.9234 77.3691 46.7561C78.9131 51.3882 77.4463 56.1592 72.104 55.032C68.4215 50.8709 64.2836 46.4319 60.9717 42.8961ZM48.7894 31.3932C49.7698 27.703 50.5187 24.3216 56.3165 23.6731C63.9825 22.7699 59.474 13.5212 71.579 14.3473C75.4391 14.5789 77.593 12.8496 79.5539 10.6648C87.521 1.8639 92.3383 12.6952 101.587 7.95504C113.399 1.9411 112.565 14.6483 125.581 14.6483C144.155 14.6483 132.344 25.8579 142.804 30.3664C149.644 33.3 145.12 37.5924 146.865 44.9574C141.461 38.1174 147.637 33.0762 136.057 30.2892C129.626 28.7452 142.233 16.1383 117.405 17.5742C116.639 17.6274 115.878 17.4078 115.258 16.9543C114.638 16.5008 114.198 15.8426 114.016 15.0961C112.472 8.70388 104.69 7.19847 97.5494 12.6874C92.9637 16.2232 86.1159 4.04096 78.9749 16.3004C76.7206 20.1605 65.21 10.9581 63.6274 23.9665C63.2568 27.1317 52.7266 22.9937 54.757 32.1652C55.5831 36.0793 49.0442 34.2728 51.144 42.016C50.2443 41.4622 49.2864 41.0092 48.2876 40.665C48.7894 38.9897 49.7698 34.6974 48.7894 31.3932ZM32.3997 35.1529C31.4192 36.805 31.1953 38.6115 30.7399 40.5569C30.3693 42.3634 31.5119 43.7916 32.0214 41.9156C34.3374 33.3386 38.2592 28.7529 42.9993 28.7915C48.8666 28.861 47.3612 37.438 46.5351 40.2172C45.4852 40.1477 43.0765 39.8467 42.5516 40.5955C42.2505 41.0433 42.9221 41.576 43.3776 41.576C46.759 41.7998 55.4827 44.3552 55.7297 52.855C55.7992 56.468 53.2439 60.5287 48.9592 59.9266C47.531 59.695 47.1527 58.7994 46.6432 56.9929C43.1846 44.278 27.6132 59.2472 39.6951 63.8329C40.0657 68.1948 42.9993 60.6754 48.1177 61.6559C52.4796 62.4819 53.2284 66.5427 51.5763 69.9241C45.7091 81.813 12.6208 73.7841 12.204 56.3908C15.4696 30.4359 28.3389 22.3375 32.3997 35.1529ZM45.7863 60.0424C44.1674 60.4233 42.6685 61.2005 41.4244 62.3044C35.1789 62.7521 36.4604 53.0403 42.3277 54.2523C44.8058 54.7773 44.582 58.0892 45.7863 60.0424ZM17.7856 111.265C2.29139 103.29 3.79681 79.1496 10.714 60.1196C16.504 74.9344 34.9319 80.1918 47.7163 76.0615C48.5424 78.3235 46.8131 85.4646 46.512 87.8732C46.2109 90.2819 48.056 88.9232 48.5424 87.0472C49.5923 83.1871 50.0864 75.0116 49.3684 75.2355C53.9618 72.6029 56.3628 65.4619 52.0781 61.625C53.4493 61.1927 54.6558 60.3525 55.5367 59.2163C55.5367 67.1912 56.44 73.429 62.0834 77.6441C58.8486 85.619 48.4651 83.0482 56.0617 98.249C52.2017 98.8512 48.9206 101.561 49.8856 105.467C47.9155 107.375 46.378 109.684 45.3771 112.238C38.9386 115.774 26.9802 116.376 17.7856 111.265ZM45.6859 130.365C54.95 133.375 55.2125 130.272 53.6608 130.063C50.8433 129.772 48.0673 129.166 45.3848 128.257C44.9308 124.569 45.1083 120.83 45.9098 117.202C54.9423 121.432 54.4019 118.236 53.1281 117.974C50.7935 117.288 48.525 116.394 46.3498 115.303C47.1385 112.256 48.6901 109.461 50.8584 107.181C51.2795 107.659 51.8029 108.035 52.3897 108.283C52.9765 108.53 53.6115 108.642 54.2475 108.609C54.317 112.215 58.8332 113.797 61.543 112.292C63.5733 116.576 71.579 115.303 71.6948 109.976C71.9829 110.131 72.2854 110.258 72.5981 110.354C68.1591 118.553 67.9661 135.622 72.297 147.356C59.474 145.303 48.6041 143.002 45.7091 130.365H45.6859ZM136.914 135.475C125.859 147.055 92.3924 150.367 74.2656 147.588C69.7494 136.077 69.7494 118.707 74.2656 110.887C74.8076 111.027 75.3603 111.128 75.9177 111.188C73.6635 115.82 79.9013 120.29 83.0665 117.125C85.0197 119.61 90.5859 118.931 91.713 115.997C94.9477 118.406 99.6878 115.025 98.4063 110.964C102.915 107.428 107.207 105.768 113.846 105.622C115.8 105.622 115.051 103.815 112.565 103.815C110.145 103.806 107.737 104.162 105.424 104.873C108.435 101.337 108.134 97.5774 106.397 93.4394C115.73 92.459 128.661 86.7461 135.509 80.7244C149.722 91.8568 148.818 123.671 136.937 135.475H136.914Z" fill="#001434"/>
<path d="M77.2307 86.6687C77.6784 87.6491 80.0099 86.5915 80.5348 86.4448C81.0598 86.2981 81.3069 85.5415 80.8359 84.785C80.226 84.0361 76.7675 85.6882 77.2307 86.6687Z" fill="#001434"/>
<path d="M94.3691 87.7187C95.4962 88.097 95.9131 86.0666 96.1756 85.5417C96.2937 85.3212 96.3202 85.0631 96.2494 84.8233C96.1786 84.5834 96.0162 84.3811 95.7973 84.2601C94.2919 83.5113 93.242 87.271 94.3691 87.7187Z" fill="#001434"/>
<path d="M75.4163 84.3373C76.1883 84.8082 77.825 82.9863 78.1261 82.083C78.4272 81.1798 76.7674 80.0526 76.0957 81.257C75.563 82.1525 74.4977 83.7583 75.4163 84.3373Z" fill="#001434"/>
<path d="M90.8334 87.271C91.8138 87.271 91.6594 84.9549 91.4356 83.8124C91.2117 82.6698 89.4824 83.133 89.6291 84.1134C89.7757 85.0939 89.7835 87.271 90.8334 87.271Z" fill="#001434"/>
<path d="M83.9161 61.1772C79.2841 58.9152 75.4241 66.6199 80.4576 71.0975C91.1421 80.0451 113.09 69.0131 106.328 59.8957C100.082 51.5503 96.7778 67.4382 83.9161 61.1772ZM105.571 64.4042C104.143 67.94 98.4299 72.0779 92.9409 72.3018C86.1704 72.6029 80.6814 71.2519 79.6238 66.1258C84.0628 68.6657 84.7113 66.4037 83.5379 65.9019C82.3115 65.5445 81.1641 64.9577 80.1565 64.1726C81.9552 60.4901 84.7885 65.0758 91.2811 64.327C97.4571 63.6476 101.742 56.8076 104.297 60.3357C103.622 61.2155 102.809 61.9795 101.888 62.5977C101.51 62.9683 101.587 63.7943 102.112 63.8715C103.016 64.0259 103.772 63.501 105.347 61.9183C105.583 62.2827 105.728 62.7004 105.767 63.1335C105.806 63.5667 105.738 64.0028 105.571 64.4042Z" fill="#001434"/>
<path d="M98.6537 92.9837C95.8745 84.785 83.9856 88.4752 84.0628 95.9173C83.6336 95.7104 83.1795 95.5599 82.7118 95.4696C81.1677 93.8097 77.7477 93.0609 76.2423 94.0413H75.4163C80.0483 86.4448 69.7034 80.0526 63.6818 86.0665C57.5057 91.1077 62.9098 100.804 70.4523 98.0249C69.7729 102.31 75.7174 103.969 78.4271 101.113C79.7009 104.047 84.5183 104.579 85.9465 101.491C91.8137 107.953 101.811 100.735 98.6537 92.9837ZM64.2839 95.1685C67.5207 92.6658 70.4953 89.8412 73.162 86.7382C75.864 88.9924 74.791 93.1149 72.2588 95.1608C70.0431 96.9518 66.1676 97.1989 64.2839 95.1685ZM75.2619 100.735C71.0544 101.26 71.8805 95.5468 75.7174 95.9173C76.1699 97.0746 76.8925 98.1068 77.8249 98.9282C77.5896 99.4246 77.2299 99.8518 76.7808 100.168C76.3318 100.485 75.8085 100.68 75.2619 100.735ZM79.1219 97.5771C78.448 97.0377 77.9177 96.3403 77.5779 95.5468C78.8502 95.5008 80.1067 95.8399 81.1832 96.5195C80.5507 96.9759 79.8461 97.323 79.0988 97.5463L79.1219 97.5771ZM83.2599 101.707C82.8769 101.819 82.4735 101.843 82.08 101.777C81.6865 101.711 81.313 101.557 80.9877 101.326C80.6623 101.095 80.3935 100.793 80.2014 100.443C80.0093 100.094 79.8989 99.7049 79.8785 99.3064C80.9778 98.9766 81.9657 98.3518 82.7349 97.4999C84.7421 97.9477 85.4215 100.804 83.2367 101.707H83.2599ZM95.8976 100.21C94.3922 102.008 91.0031 102.912 88.7488 101.337C90.702 98.5499 93.3346 93.6631 94.84 90.8838C97.9743 93.1381 97.9049 97.6466 95.8745 100.21H95.8976Z" fill="#001434"/>
<path d="M85.8693 55.858C85.2323 55.1587 84.798 54.299 84.613 53.3713C84.428 52.4436 84.4994 51.4831 84.8194 50.5929C86.7726 45.8528 91.2116 48.9408 91.8138 47.2115C91.857 46.9722 91.812 46.7253 91.6871 46.5166C91.5621 46.3079 91.3658 46.1516 91.1344 46.0767C83.5379 44.3474 80.0793 52.6233 84.5878 57.0623C85.9079 58.3516 87.5523 57.9347 85.8693 55.858Z" fill="#001434"/>
<path d="M113.769 35.1527C109.785 33.6086 102.135 33.8789 97.4484 39.2906C93.5884 43.7142 97.379 57.8651 104.52 53.7272C108.882 51.1718 115.652 53.2022 118.957 48.987C122.261 44.7719 118.285 36.8048 113.769 35.1527ZM117.829 47.4121C117.227 48.7632 115.05 49.8208 113.468 49.8208C108.882 45.8295 103.617 41.6916 100.235 39.1362C101.993 37.5691 104.159 36.5327 106.482 36.1474C108.805 35.762 111.19 36.0435 113.36 36.9592C116.702 38.5341 119.559 43.7219 117.829 47.4121Z" fill="#001434"/>
<path d="M81.5073 122.389C81.5845 120.892 80.2258 121.617 80.0019 123.161C79.4769 127.369 80.0791 136.093 82.4878 138.602C83.1594 139.273 83.3138 138.077 83.1594 137.621C81.4301 132.287 81.3606 127.431 81.5073 122.389Z" fill="#001434"/>
<path d="M27.4356 81.7821C21.5793 80.2214 16.35 76.8854 12.4664 72.2324C10.7371 70.202 10.7911 72.6184 11.8642 73.9617C14.0027 76.6251 20.4412 81.3267 25.7063 82.9093C27.6595 83.5114 28.4083 82.006 27.4356 81.7821Z" fill="#001434"/>
<path d="M71.8805 83.0558C72.9304 83.4341 74.1965 79.1494 72.4826 79.1494C71.7106 79.1494 71.3555 79.4505 71.2783 80.3537C71.2011 81.257 70.8305 82.6852 71.8805 83.0558Z" fill="#001434"/>
</svg>
