<svg width="155" height="155" viewBox="0 0 155 155" fill="none" xmlns="http://www.w3.org/2000/svg">
<path d="M68.7574 87.2544C70.7631 87.101 72.7519 86.7756 74.7018 86.2817C75.9756 85.9806 77.2572 84.7377 75.2268 84.7377C72.8751 84.9184 70.5366 85.2433 68.2247 85.7104C67.1748 85.9806 67.1748 87.2544 68.7574 87.2544Z" fill="#3D9CFB"/>
<path d="M66.72 69.2743C68.0787 69.1971 71.8384 68.6413 73.0427 68.4405C74.0926 68.2707 74.247 66.7884 72.2707 66.9428C63.5702 67.4832 65.3535 69.3515 66.72 69.2743Z" fill="#3D9CFB"/>
<path d="M23.4566 62.4266C27.0696 62.1256 29.1772 61.8245 28.8607 59.6397C28.4824 56.7833 28.4052 54.2974 25.9965 54.5213C21.3645 54.8996 19.6043 55.1235 20.8086 60.2419C21.048 61.2223 21.4957 62.5733 23.4566 62.4266ZM23.0011 56.405C25.3172 55.9649 26.6836 55.5095 27.0696 57.177C27.4633 59.7787 27.7876 60.5198 26.0892 60.7205C24.5452 60.8981 22.4762 61.3922 22.2291 59.8173C22.0979 58.6438 21.5729 56.6752 23.0011 56.405Z" fill="#3D9CFB"/>
<path d="M12.996 45.0409C17.0567 44.4388 19.4654 44.6627 19.0176 40.9802C18.6393 37.9694 18.4926 36.1629 15.4046 36.3481C12.5482 36.4948 9.30576 36.8808 9.83844 40.1155C10.209 42.1073 10.0623 45.4192 12.996 45.0409ZM15.312 37.815C17.3424 37.5911 17.1957 39.552 17.4968 41.2041C17.7206 42.6323 16.9718 42.9488 16.5163 43.0878C15.4098 43.3891 14.273 43.5652 13.1272 43.6127C11.699 43.6899 11.506 41.5051 11.3284 39.9997C11.0814 37.7995 13.5209 38.0466 15.3274 37.7995L15.312 37.815Z" fill="#3D9CFB"/>
<path d="M20.1441 93.1293C20.6691 91.5853 21.3098 82.6686 21.194 80.2599C21.1899 79.7074 20.9773 79.1768 20.5988 78.7743C20.2203 78.3718 19.7038 78.127 19.1526 78.089C18.6013 78.0509 18.0561 78.2224 17.6259 78.5691C17.1956 78.9158 16.9122 79.4121 16.8322 79.9588C16.3844 82.5914 15.404 92.0716 16.23 93.4999C17.0561 94.9281 19.6191 94.5575 20.1441 93.1293Z" fill="#3D9CFB"/>
<path d="M25.564 72.3544C31.246 71.9298 31.9717 71.4358 30.6825 65.885C30.0803 63.4764 26.8224 64.3796 24.8847 64.7579C22.7771 65.2057 22.6999 66.7111 22.8543 67.9154C23.1168 69.7219 23.4565 72.5397 25.564 72.3544ZM27.8801 65.6611C29.6788 65.3909 29.4627 67.2052 29.6866 68.5948C29.9954 70.4321 28.4436 70.5711 25.7725 70.7796C24.7226 70.849 24.491 69.2355 24.2671 67.6915C24.1358 66.0394 26.1585 65.9159 27.8955 65.6611H27.8801Z" fill="#3D9CFB"/>
<path d="M63.7168 55.2003C62.9448 54.1272 60.5516 54.7525 59.2006 55.2003C57.8495 55.6481 58.1429 56.5513 59.3472 56.7057C60.5516 56.8601 64.4193 56.2348 63.7168 55.2003Z" fill="#3D9CFB"/>
<path d="M13.9759 91.6932C13.3738 91.0911 11.1427 89.9331 9.76077 88.8368C7.98515 87.4395 11.8683 84.6989 12.5477 83.039C13.3197 81.2403 10.3629 79.3566 8.93472 81.2403C6.74994 83.9423 1.75505 87.949 5.39892 90.7205C6.46429 91.4925 10.5868 94.7041 12.4705 94.8585C14.1226 95.0051 14.9487 92.8281 13.9759 91.6932Z" fill="#3D9CFB"/>
<path d="M123.385 80.3371C126.395 80.036 136.323 78.9012 137.682 78.5306C138.684 78.3718 139.62 77.9343 140.385 77.268C141.15 76.6018 141.711 75.7337 142.005 74.7632C143.279 71.6057 145.765 62.5732 146.143 61.0678C147.278 55.9494 143.31 58.8753 128.758 60.1645C127.553 60.2417 126.727 59.1146 126.048 57.8485L141.102 56.042C141.102 56.042 140.276 53.973 138.786 54.166C137.296 54.359 127.654 55.5171 126.226 55.6715C124.797 55.8259 125.994 53.2628 122.69 53.6334C119.386 54.0039 115.008 53.7878 114.707 61.8398C114.561 65.4528 114.638 75.3808 116.367 78.2449C117.139 79.6577 119.926 80.7077 123.385 80.3371Z" fill="#3D9CFB"/>
<path d="M37.5994 120.404C39.182 120.628 46.7786 119.123 47.9829 115.363C47.1569 111.225 47.0102 107.689 45.7287 103.011C36.7734 96.6189 25.4866 105.952 28.4975 114.753C32.8593 110.507 41.2896 112.615 37.5994 120.404Z" fill="#3D9CFB"/>
<path d="M93.5074 59.493C90.7281 59.493 88.7672 59.7941 88.6206 60.4657C88.3195 61.2377 89.0683 61.4462 89.6705 61.4462C90.2727 61.4462 93.0596 61.1451 94.3411 60.9984C95.6227 60.8517 96.2943 59.493 93.5074 59.493Z" fill="#3D9CFB"/>
<path d="M79.8128 76.7241C80.9477 76.7241 84.854 76.1219 86.0584 75.952C87.2627 75.7822 87.4943 74.408 85.9117 74.408C83.8351 74.4924 81.7691 74.7506 79.7356 75.18C78.2379 75.6278 78.7011 76.7241 79.8128 76.7241Z" fill="#3D9CFB"/>
<path d="M79.5121 57.7559C79.2882 56.2505 72.9654 57.5321 71.9927 57.9103C71.02 58.2886 70.8656 59.3385 72.0622 59.3385C73.2588 59.3385 79.7437 59.1919 79.5121 57.7559Z" fill="#3D9CFB"/>
<path d="M80.4155 90.9445C81.396 90.9445 86.9853 90.3269 86.1361 89.4005C85.2869 88.4741 81.1721 89.1766 80.346 89.4777C79.52 89.7788 79.4737 90.9445 80.4155 90.9445Z" fill="#3D9CFB"/>
<path d="M121.802 23.2935C121.802 9.68301 102.942 10.7175 99.9854 20.5838C112.669 19.2713 110.214 29.9173 102.24 27.9641C105.552 30.8515 121.802 30.3651 121.802 23.2935Z" fill="#3D9CFB"/>
<path d="M12.9179 30.3651C13.0953 30.0302 13.1684 29.6498 13.1278 29.273C13.0871 28.8962 12.9346 28.5402 12.6899 28.2508C12.4452 27.9613 12.1194 27.7518 11.7546 27.6492C11.3898 27.5465 11.0026 27.5554 10.6428 27.6747C10.4041 27.7537 10.1834 27.8794 9.99365 28.0444C9.80387 28.2094 9.64876 28.4104 9.5373 28.6358C8.67265 30.5041 11.6449 32.7043 12.9187 30.3651H12.9179Z" fill="#3D9CFB"/>
<path d="M83.2026 105.319C85.7574 105.056 88.2959 104.654 90.8069 104.115C92.0807 103.814 92.3509 102.455 90.5753 102.571C88.7997 102.687 84.7003 103.219 83.2798 103.544C81.8593 103.868 81.5505 105.389 83.2026 105.319Z" fill="#3D9CFB"/>
<path d="M70.6331 97.4912C72.3624 97.6379 77.2029 96.7964 76.5081 95.8314C75.8133 94.8664 71.6135 95.6847 70.8647 95.9858C70.1158 96.2869 69.6604 97.414 70.6331 97.4912Z" fill="#3D9CFB"/>
<path d="M58.2191 43.7592C60.4734 43.9136 61.4538 40.3006 58.5974 39.8992C55.741 39.4978 55.4322 43.5354 58.2191 43.7592Z" fill="#3D9CFB"/>
<path d="M28.0422 42.9337C29.7376 42.7868 31.4216 42.5289 33.0834 42.1617C34.2182 41.9378 34.3649 40.5019 32.7823 40.6177C31.1997 40.7335 29.4009 40.996 27.8955 41.3897C26.5367 41.8066 26.915 42.9337 28.0422 42.9337Z" fill="#3D9CFB"/>
<path d="M18.2609 48.8775C18.5234 50.4215 18.9403 53.0927 20.9707 52.8688C27.4401 52.2666 27.2934 51.7417 25.9347 46.6233C25.263 44.3613 22.0283 45.2645 20.1446 45.72C18.037 46.245 18.0602 47.6732 18.2609 48.8775ZM23.0782 46.5615C24.7381 46.245 24.6609 47.8353 24.9619 49.1786C25.1858 50.3057 24.9619 50.4601 24.5065 50.6068C23.4534 50.9399 22.3698 51.1675 21.2717 51.2862C20.4457 51.3634 20.2218 51.1395 19.6891 48.7308C19.3186 47.0015 20.0288 47.0633 23.1168 46.5461L23.0782 46.5615Z" fill="#3D9CFB"/>
<path d="M49.1173 43.69C50.0205 45.7204 53.8574 44.5933 52.7998 41.9608C51.7421 39.3282 47.9129 41.2042 49.1173 43.69Z" fill="#3D9CFB"/>
<path d="M20.2213 27.7635C19.2409 25.2082 15.7437 26.9915 16.8322 29.3076C17.7123 31.1835 21.194 30.2185 20.2213 27.7635Z" fill="#3D9CFB"/>
<path d="M25.5642 25.7794C25.3171 25.7338 25.0633 25.7398 24.8187 25.797C24.574 25.8542 24.3438 25.9614 24.1426 26.1119C23.9414 26.2623 23.7734 26.4528 23.6493 26.6712C23.5253 26.8897 23.4477 27.1315 23.4215 27.3814C23.3954 27.6312 23.4212 27.8838 23.4973 28.1233C23.5735 28.3627 23.6983 28.5838 23.864 28.7727C24.0297 28.9615 24.2327 29.1141 24.4602 29.2207C24.6877 29.3274 24.9348 29.3858 25.1859 29.3924C27.2163 29.5391 28.1196 26.1577 25.5642 25.7794Z" fill="#3D9CFB"/>
<path d="M50.9932 70.3239C53.0236 70.0228 56.9531 70.3239 56.3355 67.1664C55.9186 64.9894 56.1193 63.0748 53.4018 63.3064C51.3715 63.4917 47.6813 63.6769 48.4378 66.3172C48.6617 67.9925 48.5922 70.7022 50.9932 70.3239Z" fill="#3D9CFB"/>
<path d="M56.4131 100.648C58.4434 100.347 62.4347 100.648 61.8171 97.5604C61.516 95.3756 61.7399 93.4919 58.953 93.7004C56.9226 93.847 53.2401 94.0709 53.9118 96.634C54.1588 98.317 53.9272 101.027 56.4131 100.648Z" fill="#3D9CFB"/>
<path d="M33.3142 62.0482C34.2869 61.971 35.7229 61.5233 36.6261 61.3688C37.5294 61.2144 37.2283 59.8248 36.2478 59.9406C35.167 60.0186 34.1017 60.2479 33.0826 60.62C31.8783 61.0678 32.3338 62.1254 33.3142 62.0482Z" fill="#3D9CFB"/>
<path d="M49.3655 60.2417C51.5502 59.9406 55.3099 60.1645 54.5534 56.8526C54.1056 54.6755 54.4067 52.4907 51.6969 52.6451C49.5121 52.7146 45.9764 52.9462 46.7329 55.7331C46.8564 57.6091 46.7098 60.62 49.3655 60.2417Z" fill="#3D9CFB"/>
<path d="M30.3806 52.7919C35.5067 52.2515 33.0826 50.1594 30.0795 51.3637C28.5741 51.9658 28.9446 52.9463 30.3806 52.7919Z" fill="#3D9CFB"/>
<path d="M24.7382 89.2149C24.6257 89.5572 24.6116 89.9242 24.6976 90.274C24.7836 90.6239 24.9662 90.9426 25.2245 91.1937C25.4829 91.4448 25.8066 91.6182 26.1588 91.6942C26.511 91.7703 26.8774 91.7458 27.2163 91.6236C29.0228 90.8516 31.8098 86.6518 32.5586 85.6019C35.0445 81.9889 30.3044 79.8813 27.3707 77.7738C24.7382 75.8901 23.0012 78.9009 24.2055 80.4063C25.186 81.6106 29.5478 83.1933 27.9729 85.0384C26.9152 86.2041 25.0393 88.3811 24.7382 89.2149Z" fill="#3D9CFB"/>
<path d="M55.0614 90.489C57.169 90.188 61.2375 90.4196 60.3265 87.1848C59.871 85.0001 60.0254 82.8925 57.2385 83.2708C55.1309 83.4947 51.6723 83.7957 52.4212 86.4283C52.7994 88.0804 52.7994 90.8673 55.0614 90.489Z" fill="#3D9CFB"/>
<path d="M88.3198 117.355C87.0382 117.054 86.8144 117.278 84.7068 118.413C84.259 118.637 82.9003 119.316 84.3285 119.841C91.5545 122.551 91.1453 123.246 95.6924 120.52C96.2946 120.142 96.8968 119.316 88.3198 117.355Z" fill="#3D9CFB"/>
<path d="M113.981 131.274C114.128 130.904 114.205 123.979 114.051 121.416C113.983 120.994 113.805 120.598 113.533 120.268C113.262 119.938 112.908 119.687 112.507 119.54C112.553 118.636 112.527 117.73 112.43 116.83C112.051 114.722 108.137 113.441 106.03 113.742C104.679 113.896 103.25 114.645 100.687 116.004C100.026 115.839 99.3736 115.638 98.7341 115.402C98.8808 113.672 99.0352 112.916 98.7341 112.013C98.3558 110.963 94.82 109.982 92.5581 109.982C90.943 110.137 89.3712 110.595 87.926 111.333C87.6798 111.485 87.399 111.572 87.11 111.586C86.8209 111.599 86.5332 111.539 86.2739 111.41C84.3902 110.808 82.2826 109.604 80.5533 110.059C74.91 111.603 75.4349 112.375 75.5893 114.645C74.528 114.148 73.3722 113.885 72.2002 113.873C71.297 113.873 66.4797 114.776 65.9547 117.031C65.7175 118.423 65.6167 119.834 65.6536 121.246C63.3993 121.848 63.7004 131.104 64.9742 132.826C68.4406 137.566 73.9295 134.03 78.3686 132.301C78.2219 134.856 78.3686 137.574 78.824 138.392C79.6964 139.936 84.313 141.179 86.2739 141.179C88.3815 141.179 90.4814 139.635 92.5195 138.245C94.7737 139.017 98.5334 141.179 100.718 140.5C105.011 139.226 106.215 138.245 106.06 134.324C108.809 135.644 113.225 133.76 113.981 131.274ZM111.719 122.62C109.349 125.067 105.929 123.075 102.54 122.172C101.56 121.948 101.413 122.172 99.3054 123.377C98.8499 123.678 98.0239 124.149 99.0043 124.504C99.8304 124.728 101.259 125.33 102.764 125.862C105.08 126.634 102.463 129.167 99.676 129.468C96.889 129.769 94.1793 126.835 91.9559 127.661C88.8679 128.865 86.0809 133.312 81.0397 129.097C80.1365 128.325 85.031 125.785 85.6718 125.407C86.6522 124.805 86.1967 124.125 78.4458 121.948C76.7937 121.493 76.6393 122.172 72.123 124.264C70.3242 125.09 68.5177 124.264 66.8579 123.438C65.808 122.906 66.9351 122.08 71.0731 120.35C73.4818 119.578 68.8883 118.621 67.9851 118.034C66.7113 117.131 70.6253 115.471 72.0535 115.626C75.9676 115.927 76.6856 118.482 81.0783 116.228C83.3403 115.023 77.6815 114.437 77.0948 113.595C76.7859 113.147 79.2718 111.866 81.3099 111.711C82.8539 111.565 86.05 113.441 87.1772 113.441C88.3043 113.441 91.2379 111.372 93.0444 111.41C94.7042 111.449 97.0357 112.236 96.8118 112.769C96.6574 113.14 94.7737 114.043 93.6466 114.568C92.5195 115.093 93.4227 115.402 93.8705 115.548C99.3363 117.44 100.68 117.942 101.591 117.509C104.825 115.772 104.972 115.703 106.223 115.471C107.805 115.247 111.102 116.297 110.739 116.977C110.029 118.32 105.682 119.293 107.574 119.841C110.16 120.574 113.371 120.922 111.719 122.62Z" fill="#3D9CFB"/>
<path d="M41.1347 43.0106C40.2314 44.9638 43.4507 47.303 44.8249 44.8171C46.1991 42.3313 42.339 40.4553 41.1347 43.0106Z" fill="#3D9CFB"/>
<path d="M63.1139 105.466C62.975 102.455 59.1227 103.922 57.239 104.115C54.8303 104.339 55.695 107.203 55.888 108.747C56.0346 111.38 59.4237 110.631 61.4541 110.252C64.465 109.681 63.2143 107.805 63.1139 105.466Z" fill="#3D9CFB"/>
<path d="M56.2663 80.0361C59.2694 79.434 57.9956 77.5503 57.8103 75.1416C57.6637 72.1308 53.8268 73.5976 51.9431 73.7906C49.5344 74.0145 50.4377 76.9481 50.6616 78.4226C50.8468 81.1633 54.2282 80.4067 56.2663 80.0361Z" fill="#3D9CFB"/>
<path d="M66.4183 93.1988C68.1554 93.1988 74.4781 91.9559 76.053 91.6548C77.6279 91.3537 77.6356 89.9178 75.1497 90.2188C72.6639 90.5199 66.4183 91.4232 65.3684 91.9559C64.6196 92.2955 64.8048 93.1988 66.4183 93.1988Z" fill="#001434"/>
<path d="M145.958 54.3749C145.214 54.5245 144.461 54.6251 143.704 54.676C143.171 52.1129 142.044 50.6075 138.732 50.9858C127.029 52.2055 127.546 52.9081 126.998 51.7578C126.133 49.9281 124.89 49.4958 121.802 49.8741C112.538 51.2946 110.338 50.9935 111.272 59.3543C112.816 72.3935 112.229 79.1486 118.645 79.1486C124.049 79.2181 136.401 77.4888 140.693 76.6627C143.171 76.2072 144.453 75.8367 145.881 72.602C147.672 68.1939 149.156 63.6667 150.32 59.0532C151.077 55.2781 149.347 54.151 145.958 54.3749ZM112.669 59.3389C111.998 51.9585 113.889 52.5915 122.072 51.3641C124.782 50.9858 125.16 51.449 125.608 52.5684C126.442 54.5061 126.21 54.0661 138.779 52.4912C140.886 52.2673 141.643 52.7151 142.091 54.8998C136.748 55.5792 126.743 56.853 124.103 57.3085C120.498 57.9107 118.459 59.4161 117.711 61.8942C116.715 65.6385 116.39 74.2463 115.155 75.8907C113.534 71.7682 113.441 65.5921 112.669 59.3389ZM148.954 58.7367C147.756 63.2556 146.299 67.7019 144.592 72.0538C143.388 74.7636 142.631 74.9875 140.454 75.2963C137.814 75.6668 118.251 78.9788 116.221 77.0951C116.823 76.6473 117.425 75.3658 118.027 71.6061C119.571 61.4542 118.645 59.8407 124.651 58.7367C128.187 58.0574 140.539 56.6446 145.495 56.027C148.182 55.7027 149.548 55.9652 148.954 58.7367Z" fill="#001434"/>
<path d="M86.8141 93.4998C85.1543 93.4612 80.1903 94.102 79.0941 94.7042C77.9978 95.3063 77.8897 96.1324 79.1713 96.2482C80.4528 96.364 86.6906 95.121 87.5244 95.0438C88.3582 94.9666 88.5434 93.5384 86.8141 93.4998Z" fill="#001434"/>
<path d="M115.031 113.294C117.887 112.839 132.64 110.507 137.303 109.604C145.278 107.975 144.745 106.632 140.314 80.9395C139.866 78.7547 138.662 80.484 139.187 83.4948C142.329 104.424 144.05 106.454 137.527 107.875C134.068 108.701 115.409 111.735 113.301 112.09C111.194 112.445 112.174 113.742 115.031 113.294Z" fill="#001434"/>
<path d="M67.5522 62.4268C66.6489 62.7279 66.4173 63.9322 67.6217 63.9322C68.826 63.9322 73.0257 63.554 72.439 62.5735C71.8523 61.5931 68.4554 62.1257 67.5522 62.4268Z" fill="#001434"/>
<path d="M67.3977 78.5306C69.5694 78.3136 71.7287 77.9864 73.8671 77.5502C75.2259 77.3263 76.4302 75.6665 73.9443 75.8903C71.4585 76.1142 68.3782 76.423 66.9499 77.2491C66.0467 77.6274 66.6489 78.5306 67.3977 78.5306Z" fill="#001434"/>
<path d="M76.5776 100.649C75.6744 101.027 76.2071 102.077 77.4809 102.008C79.9087 101.731 82.3206 101.329 84.7069 100.803C86.2509 100.348 85.9884 99.2592 84.5525 99.2592C81.8597 99.4986 79.1916 99.9633 76.5776 100.649Z" fill="#001434"/>
<path d="M123.909 99.7454C126.542 99.5215 125.87 95.6846 123.461 96.1324C123.116 96.1908 122.795 96.3473 122.536 96.5834C122.277 96.8195 122.092 97.1251 122.002 97.4636C121.913 97.8022 121.922 98.1594 122.03 98.4926C122.138 98.8258 122.34 99.1208 122.611 99.3424C122.976 99.6395 123.441 99.7839 123.909 99.7454Z" fill="#001434"/>
<path d="M119.772 98.5414C119.586 98.1284 119.255 97.7986 118.841 97.6153C118.427 97.4321 117.96 97.4083 117.53 97.5486C117.1 97.6899 116.737 97.9856 116.512 98.3786C116.288 98.7715 116.217 99.2339 116.313 99.6762C116.838 102.154 120.752 100.95 119.772 98.5414Z" fill="#001434"/>
<path d="M133.019 92.0717C132.718 90.7902 130.309 91.2456 129.159 89.9641C127.877 88.5359 128.703 85.0773 126.673 83.7186C124.943 82.5142 121.632 83.873 122.079 84.9229C122.759 86.2816 124.11 84.8457 125.245 85.6949C126.673 86.7448 126.217 90.2034 127.275 91.485C128.255 92.6121 130.062 92.4654 130.062 92.8437C130.062 93.3687 128.626 93.6157 128.178 95.1597C127.73 96.7037 129.228 99.7454 128.78 101.027C128.255 102.455 125.847 101.328 125.769 102.756C125.692 103.814 129.228 104.64 130.888 102.154C132.092 100.348 129.907 97.1901 130.355 95.8314C130.911 94.2565 133.389 93.7315 133.019 92.0717Z" fill="#001434"/>
<path d="M88.7362 65.9627C87.9024 64.604 81.1473 65.6925 79.7809 66.1866C78.4144 66.6807 78.5766 67.8464 80.3059 67.7306C82.0352 67.6148 89.2997 67.0126 88.7362 65.9627Z" fill="#001434"/>
<path d="M72.8172 49.1791C70.864 49.1791 60.6272 50.3835 59.199 50.7618C57.7708 51.14 57.6936 52.3058 58.8979 52.3058C60.1022 52.3058 72.022 50.8698 73.4966 50.646C74.9711 50.4221 74.2454 49.1791 72.8172 49.1791Z" fill="#001434"/>
<path d="M81.9976 71.9068C83.5417 71.6057 82.9009 70.3242 80.7933 70.4786C78.4215 70.6509 76.0608 70.9524 73.7217 71.3818C72.4402 71.6829 72.9497 72.7328 74.0228 72.7328C75.0959 72.7328 80.415 72.1307 81.9976 71.9068Z" fill="#001434"/>
<path d="M62.3572 60.6203C63.6387 60.5431 66.7962 60.0182 67.3984 59.941C68.0005 59.8638 68.4483 59.0609 67.4756 58.7366C66.6418 58.4587 63.4148 58.8138 62.2105 59.1149C61.0061 59.416 61.0756 60.767 62.3572 60.6203Z" fill="#001434"/>
<path d="M77.7122 52.8692C74.7554 52.9217 71.8094 53.2243 68.9036 53.7724C67.8536 54.1507 67.6992 55.3164 68.9808 55.3164C70.2623 55.3164 76.8089 54.5444 77.8588 54.4132C78.9088 54.2819 79.2871 52.9464 77.7122 52.8692Z" fill="#001434"/>
<path d="M73.1185 82.3675C74.6625 82.2131 81.2477 81.1631 82.6759 80.9393C84.1041 80.7154 83.8803 79.0556 81.5488 79.3953C80.0048 79.6191 75.751 79.9202 72.9641 80.6768C71.4587 81.0319 72.0608 82.437 73.1185 82.3675Z" fill="#001434"/>
<path d="M77.4108 61.2998C76.276 61.6009 76.7315 62.728 78.2369 62.728C79.7423 62.728 85.8875 62.3652 85.0074 61.1454C84.1273 59.9257 78.538 60.9988 77.4108 61.2998Z" fill="#001434"/>
<path d="M62.434 74.084C63.4839 74.2307 67.5524 73.4818 68.3784 73.2502C68.4802 73.2405 68.579 73.2109 68.6693 73.1629C68.7595 73.1149 68.8394 73.0496 68.9043 72.9706C68.9693 72.8917 69.0179 72.8007 69.0476 72.7029C69.0772 72.605 69.0873 72.5023 69.0771 72.4006C69.0669 72.2989 69.0367 72.2002 68.9883 72.1102C68.9399 72.0202 68.8741 71.9406 68.7949 71.8761C68.7156 71.8116 68.6244 71.7633 68.5264 71.7342C68.4284 71.705 68.3257 71.6955 68.224 71.7062C67.0969 71.7062 63.4144 72.0073 62.3568 72.54C61.2991 73.0726 61.3763 73.9373 62.434 74.084Z" fill="#001434"/>
<path d="M36.0931 36.7651C34.1399 36.9118 26.4661 37.6684 23.077 38.6488C22.251 38.8727 22.1738 40.1542 23.849 39.9998C25.5243 39.8454 36.039 38.3477 37.6139 38.1161C39.1888 37.8845 38.88 36.5412 36.0931 36.7651Z" fill="#001434"/>
<path d="M31.1291 121.717C31.8713 122.158 32.7056 122.422 33.5668 122.488C34.4279 122.553 35.2926 122.419 36.0931 122.095C36.899 122.843 37.9389 123.29 39.0365 123.359C40.134 123.428 41.2216 123.115 42.1148 122.473C42.7941 121.871 42.1148 120.929 41.2887 121.346C40.6894 121.677 40.0161 121.85 39.3317 121.85C38.6473 121.85 37.974 121.677 37.3747 121.346C37.8762 120.874 38.2728 120.301 38.5388 119.665C38.8048 119.029 38.9342 118.345 38.9187 117.656C40.0458 116.374 39.5208 113.518 37.3361 113.371C36.1317 111.827 31.932 111.488 29.8862 113.742C27.107 114.344 27.1764 117.432 28.9135 118.636C29.032 119.44 29.3684 120.195 29.8862 120.821C29.3276 121.123 28.6908 121.248 28.0596 121.18C27.4285 121.113 26.8326 120.856 26.3504 120.443C25.9103 119.98 25.3699 120.288 25.3699 120.667C25.3313 122.319 28.8671 123.492 31.1291 121.717ZM37.8301 115.471C37.958 115.73 37.9809 116.028 37.894 116.303C37.8072 116.578 37.6174 116.809 37.3642 116.948C37.1111 117.087 36.8142 117.122 36.5356 117.047C36.257 116.971 36.0182 116.791 35.8692 116.544C35.7625 116.35 35.7158 116.129 35.735 115.909C35.7543 115.688 35.8387 115.478 35.9774 115.306C36.1162 115.134 36.3031 115.006 36.5143 114.94C36.7256 114.874 36.9517 114.873 37.1639 114.935C37.448 115.019 37.6889 115.211 37.8301 115.471ZM35.2671 113.819C34.8119 114.184 34.4913 114.691 34.3561 115.259C34.2209 115.826 34.2787 116.423 34.5204 116.954C34.7621 117.486 35.174 117.921 35.6909 118.192C36.2077 118.463 36.8002 118.554 37.3747 118.451C37.3494 118.776 37.2559 119.091 37.1003 119.377C36.9446 119.664 36.7303 119.913 36.4714 120.111C35.8229 118.482 34.4333 119.833 35.1204 120.883C34.2049 121.107 33.2489 121.107 32.3334 120.883C33.1595 120.358 33.1595 119.679 32.5573 119.455C32.179 119.308 31.5846 119.679 31.0133 120.057C30.7656 119.761 30.5627 119.431 30.4112 119.076C33.0514 119.076 33.7385 115.371 31.685 114.112C32.2266 113.811 32.8264 113.629 33.4443 113.578C34.0621 113.528 34.6836 113.61 35.2671 113.819ZM30.1487 115.17C31.8085 115.101 31.878 117.733 30.1487 117.579C28.7977 117.432 28.7205 115.247 30.1487 115.17Z" fill="#001434"/>
<path d="M23.3011 109.002C24.6598 108.925 24.9609 107.651 25.4859 106.292C26.0108 104.933 26.5358 102.98 27.3696 102.679C27.8173 102.532 28.6434 103.135 29.0216 104.262C29.3999 105.389 30.8281 104.864 30.0793 103.057C29.2455 101.027 27.825 100.741 26.9913 100.95C25.3469 101.367 24.3587 105.582 23.3011 107.496C21.2398 107.157 21.0314 109.149 23.3011 109.002Z" fill="#001434"/>
<path d="M23.1549 117.656C25.1853 117.656 25.332 116.606 25.332 114.568C25.332 113.518 25.1081 111.032 26.4668 111.333C27.1385 111.565 27.4395 111.488 27.5167 111.032C27.8178 109.488 25.2007 109.488 24.4287 110.963C23.8265 112.167 24.4287 114.344 23.896 115.595C23.7493 115.973 22.9233 116.367 22.6917 116.421C21.9506 116.753 22.1744 117.656 23.1549 117.656Z" fill="#001434"/>
<path d="M28.7978 47.1485C27.7402 47.4496 28.2729 48.5768 29.0989 48.6926C30.6074 48.5841 32.0975 48.2964 33.538 47.8356C34.5802 47.5654 35.5066 45.234 28.7978 47.1485Z" fill="#001434"/>
<path d="M34.6965 66.9429C36.1247 66.7113 37.4063 66.1709 37.1052 65.6614C36.8041 65.1518 36.2791 65.0592 34.3954 65.5069C32.5117 65.9547 33.2374 67.1359 34.6965 66.9429Z" fill="#001434"/>
<path d="M35.1905 108.824C36.171 105.96 37.9003 102.424 41.4361 101.676C43.3198 101.22 42.0382 100.317 39.8921 100.85C36.1247 101.822 34.4031 105.219 34.0171 108.292C33.8009 109.836 34.82 109.982 35.1905 108.824Z" fill="#001434"/>
<path d="M32.0326 57.756C33.1069 57.6944 34.1685 57.492 35.1901 57.1538C36.2478 56.7832 36.3944 55.4245 35.1901 55.6098C29.292 55.9495 31.168 57.756 32.0326 57.756Z" fill="#001434"/>
<path d="M10.3624 74.0142C10.9646 77.1718 12.5472 77.8743 12.2384 75.8902C11.9296 73.9062 6.83432 46.2451 5.39839 32.7736C5.09731 30.0793 4.79622 26.2193 11.945 25.3237C22.0892 24.0036 70.1235 19.4642 78.9854 19.0087C85.2618 18.7154 87.9252 20.0818 88.8439 31.5693C88.9983 33.453 90.3879 32.7041 90.1254 29.9172C89.0446 21.3016 87.6936 16.9011 78.9081 17.5033C65.784 18.3294 29.546 21.6413 11.7435 23.8955C3.01984 25.0227 3.69148 30.2183 4.02345 33.3063C4.58701 40.0536 9.47382 69.3668 10.3616 74.0142H10.3624Z" fill="#001434"/>
<path d="M107.434 18.4994C110.368 16.0985 113.819 15.7511 115.486 16.1834C117.154 16.6157 117.741 15.1335 115.787 14.678C112.622 14.0063 108.708 14.7552 106.678 17.4649C105.551 18.9317 106.902 18.9317 107.434 18.4994Z" fill="#001434"/>
<path d="M95.2449 22.6222C94.7122 24.722 95.6155 26.3818 97.8774 27.0612C96.5959 27.8872 95.7699 29.2383 97.422 31.5002C95.9937 32.3263 96.5187 33.1369 97.422 33.0057C101.521 32.3958 96.6499 29.8636 98.4024 28.4894C98.7948 28.1783 99.2255 27.9188 99.6839 27.7174C100.248 28.3518 100.967 28.828 101.772 29.0988C102.576 29.3696 103.437 29.4257 104.27 29.2614C107.358 32.1178 110.067 29.4467 109.311 28.4354C109.087 28.1343 108.539 28.281 108.261 28.582C107.982 28.8757 107.603 29.0543 107.198 29.0829C106.794 29.1114 106.394 28.9879 106.076 28.7365C106.648 28.6064 107.18 28.3397 107.626 27.9592C108.073 27.5787 108.42 27.0958 108.639 26.5517C108.959 26.2684 109.21 25.9167 109.375 25.5228C109.541 25.1289 109.615 24.7029 109.592 24.2764C109.57 23.8499 109.452 23.4339 109.247 23.0593C109.042 22.6847 108.755 22.3611 108.408 22.1126C107.883 20.3833 104.648 18.654 101.413 19.7966C100.86 19.6432 100.274 19.6647 99.7334 19.8581C99.1932 20.0515 98.7262 20.4073 98.3963 20.8768C98.0664 21.3462 97.8899 21.9062 97.891 22.48C97.8921 23.0537 98.0707 23.6131 98.4024 24.0812C98.4024 24.0812 98.4796 25.1389 98.5491 25.5867C98.2497 25.5651 97.9576 25.4842 97.6898 25.3486C97.4219 25.2131 97.1837 25.0256 96.9891 24.7972C96.7944 24.5687 96.6471 24.3038 96.5557 24.0179C96.4644 23.7319 96.4308 23.4307 96.4569 23.1317C96.5727 21.9351 95.4688 21.9428 95.2449 22.6222ZM108.107 25.0231C108.052 25.1842 107.966 25.333 107.854 25.4609C107.742 25.5887 107.605 25.6931 107.453 25.7679C107.3 25.8428 107.134 25.8867 106.964 25.8971C106.794 25.9075 106.624 25.8842 106.463 25.8285C106.303 25.7728 106.154 25.6859 106.027 25.5727C105.9 25.4595 105.797 25.3223 105.723 25.169C105.65 25.0157 105.607 24.8493 105.598 24.6795C105.589 24.5096 105.613 24.3396 105.67 24.1793C105.784 23.8586 106.02 23.5959 106.326 23.4484C106.633 23.3009 106.986 23.2806 107.307 23.392C107.629 23.5033 107.893 23.7373 108.043 24.0428C108.193 24.3484 108.215 24.7007 108.107 25.0231ZM102.996 21.1167C104.111 21.0291 105.224 21.3201 106.153 21.9428C103.289 22.7148 103.583 26.4513 106.076 27.2851C105.746 27.5352 105.358 27.6996 104.949 27.7637C104.777 27.5119 104.649 27.2326 104.571 26.9377C104.347 26.3355 103.065 26.3355 103.22 27.7637C102.892 27.8206 102.556 27.7954 102.241 27.6903C101.925 27.5852 101.641 27.4035 101.413 27.1616C102.54 26.7138 102.316 25.6175 100.286 25.8105C100.2 25.6475 100.148 25.4691 100.132 25.2856C100.286 25.2856 100.51 25.3551 100.657 25.3551C102.996 25.4477 103.969 22.7688 102.996 21.1167ZM99.3828 22.3597C99.6376 20.3216 102.919 21.5336 101.637 23.2629C101.473 23.4895 101.239 23.655 100.971 23.7332C100.702 23.8114 100.415 23.7977 100.156 23.6945C99.8963 23.5901 99.6794 23.4021 99.5393 23.1602C99.3993 22.9183 99.3442 22.6365 99.3828 22.3597Z" fill="#001434"/>
<path d="M93.438 75.0642C94.8662 75.0642 99.6141 74.3926 100.587 74.2382C101.938 74.0143 101.938 72.6942 100.587 72.6942C99.2358 72.6942 93.8858 73.1497 92.6043 73.6746C91.3227 74.1996 91.9326 75.0642 93.438 75.0642Z" fill="#001434"/>
<path d="M133.767 48.7311C134.068 50.5376 135.427 49.9355 134.972 46.7702C132.972 32.7969 133.567 30.6816 123.77 31.0445C124.596 30.9827 124.75 29.9868 122.705 29.7629C123.006 27.2076 124.727 23.3475 122.481 22.7685C121.967 22.7199 121.449 22.7748 120.957 22.9299C120.465 23.0851 120.009 23.3374 119.617 23.6718C118.937 24.4438 119.617 25.4165 120.389 25.0228C121.161 24.6291 121.747 24.2508 121.971 24.4206C122.797 25.1 120.165 30.2956 121.971 31.1989L118.883 31.4227C118.729 30.1953 117.146 30.7665 117.455 29.8401C117.903 28.0336 119.107 24.7989 118.227 23.1468C117.702 22.1664 116.428 21.7186 114.089 22.6219C112.738 23.1468 113.116 24.7217 114.243 24.3512C116.05 23.749 116.644 23.8262 116.876 24.1968C117.107 24.5673 116.428 28.0568 115.895 29.7629C115.768 30.1183 115.766 30.5064 115.89 30.863C116.013 31.2196 116.255 31.5233 116.575 31.7238C115.293 31.801 113.942 31.9477 112.584 32.1021C113.641 30.5967 115.37 28.188 114.243 27.0609C113.641 26.4587 112.699 26.3815 111.379 26.5282C110.252 26.6826 110.028 28.2652 111.155 28.188C111.927 28.188 112.661 28.0336 112.885 28.2652C113.263 28.713 110.777 31.4227 110.708 32.1716C59.5543 37.0275 46.3916 37.9694 42.3386 38.7954C37.4518 39.8531 35.7225 43.5355 36.8496 50.9082C37.7529 56.9299 41.6669 81.0165 43.6201 92.8282C37.7837 94.0866 26.9756 96.5802 22.552 96.2868C21.4249 96.2096 21.5716 97.4139 22.552 97.6378C26.5047 98.3017 34.8038 96.0938 43.844 94.2564C44.2223 96.5724 47.4261 113.912 48.3602 118.258C49.7421 124.434 51.7802 124.604 62.8122 122.118C64.2404 121.74 63.6383 120.312 60.8513 120.844C51.6567 122.581 50.7071 122.674 49.719 117.903C46.6309 103.86 40.2001 63.6154 38.2006 50.7384C37.0117 42.5628 39.6906 40.7563 42.5702 40.2236C52.6063 38.3785 79.4567 36.9349 110.368 33.677C111.673 35.4217 113.163 34.9971 112.684 33.4531C117.424 33.0054 121.338 32.6811 123.67 32.6271C132.555 32.465 131.559 32.851 133.767 48.7311Z" fill="#001434"/>
<path d="M127.143 38.4173C125.02 38.5717 48.275 46.1837 42.9404 47.0638C40.2307 47.5192 39.3274 49.0246 41.8905 48.7236C44.4535 48.4225 126.695 39.915 128.95 39.6911C131.204 39.4672 129.853 38.1934 127.143 38.4173Z" fill="#001434"/>
<path d="M110.445 99.3746C110.257 99.8129 110.249 100.308 110.425 100.752C110.601 101.195 110.946 101.551 111.383 101.741C111.822 101.93 112.317 101.937 112.761 101.762C113.205 101.586 113.56 101.241 113.749 100.803C114.73 98.317 111.194 97.3365 110.445 99.3746Z" fill="#001434"/>
<path d="M108.639 87.0305C108.708 85.749 104.045 85.749 103.366 87.9338C102.687 90.1186 104.045 92.45 103.52 94.3337C103.065 96.063 100.51 96.3641 100.656 97.7151C100.803 99.0661 103.744 98.8422 104.647 99.9771C105.551 101.112 104.648 104.486 106.454 105.922C108.639 107.651 112.7 106.068 111.418 104.64C110.739 103.737 108.94 105.466 108.037 104.262C106.832 102.679 107.265 100.348 106.3 98.8577C105.528 97.6533 103.899 97.8077 103.667 97.4295C103.435 97.0512 105.327 96.2251 105.775 94.8741C106.3 93.3301 104.871 90.2421 105.396 88.9991C105.921 87.7562 108.562 88.5359 108.639 87.0305Z" fill="#001434"/>
<path d="M46.3298 123.979C48.5146 123.979 48.1441 122.674 47.1018 122.319C45.9052 121.925 45.7508 122.018 45.8975 119.084C46.1986 114.8 46.3298 113.302 45.5964 111.789C44.7395 109.998 42.1378 111.264 40.6324 113.294C39.8604 114.267 40.7868 115.85 41.6129 114.877C43.265 112.993 43.9289 112.993 44.1682 113.07C44.7009 113.371 44.2454 117.355 44.0987 119.316C43.9598 122.018 43.5429 123.979 46.3298 123.979Z" fill="#001434"/>
<path d="M99.0039 58.9603C97.7996 59.3386 97.7996 60.5043 99.0811 60.5043C110.098 60.4657 104.948 57.0997 99.0039 58.9603Z" fill="#001434"/>
<path d="M15.9287 61.67C16.9091 61.5233 17.5885 60.1259 17.8124 58.6591C17.9591 57.7559 17.7352 57.3081 17.0404 57.3853C16.1371 57.4548 16.0677 59.9407 15.6122 59.9407C15.1567 59.9407 14.4078 58.8907 14.0296 58.3966C13.9482 58.2826 13.8329 58.1973 13.7001 58.1528C13.5673 58.1083 13.4238 58.1069 13.2901 58.1489C13.1565 58.1908 13.0396 58.274 12.9561 58.3864C12.8726 58.4989 12.8268 58.6349 12.8252 58.7749C12.748 59.9407 14.9482 61.8244 15.9287 61.67Z" fill="#001434"/>
<path d="M12.7704 53.3167C12.616 53.9189 13.2954 54.5982 13.8975 54.1505C14.7236 53.6178 16.1518 51.5102 16.1518 50.7614C16.0823 49.7809 13.8358 48.8777 12.616 48.731C12.4527 48.7393 12.2963 48.7991 12.1693 48.902C12.0422 49.0049 11.9511 49.1454 11.9091 49.3033C11.867 49.4613 11.8762 49.6285 11.9352 49.781C11.9943 49.9334 12.1002 50.0631 12.2377 50.1515C13.0097 50.3754 14.3453 50.7536 14.3453 51.1319C14.3453 51.5102 12.9171 52.344 12.7704 53.3167Z" fill="#001434"/>
<path d="M80.9471 24.7219C77.0871 25.1002 14.1994 32.249 11.5668 32.7739C8.93427 33.2989 8.63319 34.7348 10.5092 34.4338C12.3851 34.1327 80.1905 26.3045 82.8231 26.0806C85.4556 25.8568 84.784 24.3513 80.9471 24.7219Z" fill="#001434"/>
</svg>
